<?xml version="1.0" encoding="utf-8"?>
<!-- Generator: Adobe Illustrator 16.0.3, SVG Export Plug-In . SVG Version: 6.00 Build 0)  -->
<!DOCTYPE svg PUBLIC "-//W3C//DTD SVG 1.1//EN" "http://www.w3.org/Graphics/SVG/1.1/DTD/svg11.dtd">
<svg xmlns="http://www.w3.org/2000/svg" xmlns:xlink="http://www.w3.org/1999/xlink" version="1.1" id="Warstwa_1" x="0px" y="0px" width="650px" height="300px" viewBox="0 0 650 300" xml:space="preserve">
<g id="Warstwa_1_1_">
	<polyline fill="#24A09C" points="0,300 0,0 650,0 650,300  "/>
</g>
<g>
	<g opacity="0.3">
		<g>
			<path fill="#414042" d="M453.225,124.899h51.141c0.896,0,1.614-0.407,1.614-0.912c0-0.502-0.718-0.909-1.614-0.909h-51.141     c-0.887,0-1.602,0.407-1.602,0.909C451.623,124.492,452.338,124.899,453.225,124.899z"/>
		</g>
		<g>
			<path fill="#414042" d="M382.296,74.803h51.141c0.896,0,1.614-0.407,1.614-0.912c0-0.502-0.719-0.909-1.614-0.909h-51.141     c-0.888,0-1.602,0.407-1.602,0.909C380.694,74.396,381.408,74.803,382.296,74.803z"/>
		</g>
		<g>
			<path fill="#414042" d="M386.022,56.519h27.554c0.482,0,0.871-0.407,0.871-0.912c0-0.502-0.389-0.909-0.871-0.909h-27.554     c-0.479,0-0.863,0.407-0.863,0.909C385.159,56.111,385.544,56.519,386.022,56.519z"/>
		</g>
		<g>
			<path fill="#414042" d="M241.246,65.662H268.8c0.482,0,0.87-0.407,0.87-0.912c0-0.502-0.388-0.909-0.87-0.909h-27.554     c-0.478,0-0.863,0.407-0.863,0.909C240.383,65.255,240.768,65.662,241.246,65.662z"/>
		</g>
		<g>
			<path fill="#414042" d="M103.964,150.129h51.141c0.896,0,1.614-0.407,1.614-0.912c0-0.502-0.718-0.91-1.614-0.91h-51.141     c-0.888,0-1.602,0.407-1.602,0.91C102.363,149.722,103.077,150.129,103.964,150.129z"/>
		</g>
		<g>
			<path fill="#414042" d="M73.769,177.121h23.688c0.416,0,0.748-0.406,0.748-0.912c0-0.502-0.332-0.909-0.748-0.909H73.769     c-0.411,0-0.742,0.407-0.742,0.909C73.027,176.715,73.358,177.121,73.769,177.121z"/>
		</g>
		<g>
			<path fill="#414042" d="M170.545,216.254h23.688c0.416,0,0.748-0.407,0.748-0.912c0-0.502-0.332-0.909-0.748-0.909h-23.688     c-0.411,0-0.742,0.407-0.742,0.909C169.804,215.847,170.134,216.254,170.545,216.254z"/>
		</g>
		<g>
			<path fill="#414042" d="M128.788,159.293h27.077c0.475,0,0.854-0.406,0.854-0.911c0-0.502-0.379-0.909-0.854-0.909h-27.077     c-0.471,0-0.849,0.407-0.849,0.909C127.939,158.887,128.317,159.293,128.788,159.293z"/>
		</g>
		<g>
			<path fill="#414042" d="M412.479,143.12h39.876c0.698,0,1.259-0.407,1.259-0.912c0-0.502-0.561-0.91-1.259-0.91h-39.876     c-0.692,0-1.249,0.407-1.249,0.91C411.23,142.713,411.787,143.12,412.479,143.12z"/>
		</g>
		<g>
			<path fill="#414042" d="M447.823,209.145h30.802c0.54,0,0.972-0.407,0.972-0.912c0-0.502-0.432-0.91-0.972-0.91h-30.802     c-0.535,0-0.964,0.408-0.964,0.91C446.859,208.737,447.288,209.145,447.823,209.145z"/>
		</g>
		<g>
			<path fill="#414042" d="M533.271,170.869h47.271c0.828,0,1.491-0.407,1.491-0.912c0-0.501-0.663-0.908-1.491-0.908h-47.271     c-0.82,0-1.48,0.407-1.48,0.908C531.79,170.462,532.45,170.869,533.271,170.869z"/>
		</g>
		<g>
			<path fill="#414042" d="M171.738,106.625h30.801c0.54,0,0.972-0.407,0.972-0.912c0-0.502-0.432-0.909-0.972-0.909h-30.801     c-0.536,0-0.965,0.407-0.965,0.909C170.773,106.218,171.203,106.625,171.738,106.625z"/>
		</g>
		<g>
			<path fill="#414042" d="M196.837,73.893h48.031c0.841,0,1.515-0.407,1.515-0.912c0-0.502-0.674-0.909-1.515-0.909h-48.031     c-0.834,0-1.504,0.407-1.504,0.909C195.333,73.485,196.002,73.893,196.837,73.893z"/>
		</g>
		<g>
			<path fill="#414042" d="M191.352,112.915h11.788c0.207,0,0.372-0.407,0.372-0.912c0-0.502-0.165-0.909-0.372-0.909h-11.788     c-0.205,0-0.37,0.407-0.37,0.909C190.982,112.508,191.147,112.915,191.352,112.915z"/>
		</g>
		<g>
			<path fill="#414042" d="M447.391,217.486h16.986c0.298,0,0.535-0.407,0.535-0.912c0-0.502-0.237-0.909-0.535-0.909h-16.986     c-0.295,0-0.531,0.407-0.531,0.909C446.859,217.079,447.096,217.486,447.391,217.486z"/>
		</g>
		<g>
			<path fill="#414042" d="M533.691,225.433h42.367c0.745,0,1.336-0.407,1.336-0.912c0-0.502-0.591-0.909-1.336-0.909h-42.367     c-0.737,0-1.328,0.407-1.328,0.909C532.363,225.025,532.954,225.433,533.691,225.433z"/>
		</g>
		<g>
			<path fill="#414042" d="M130.297,222.985h42.367c0.745,0,1.336-0.407,1.336-0.912c0-0.502-0.591-0.909-1.336-0.909h-42.367     c-0.738,0-1.329,0.407-1.329,0.909C128.968,222.578,129.559,222.985,130.297,222.985z"/>
		</g>
		<g>
			<path fill="#414042" d="M550.012,215.791h42.367c0.744,0,1.336-0.407,1.336-0.912c0-0.502-0.592-0.909-1.336-0.909h-42.367     c-0.737,0-1.328,0.407-1.328,0.909C548.684,215.384,549.274,215.791,550.012,215.791z"/>
		</g>
		<g>
			<path fill="#414042" d="M511.124,156.897h16.984c0.299,0,0.535-0.407,0.535-0.912c0-0.503-0.236-0.91-0.535-0.91h-16.984     c-0.296,0-0.533,0.407-0.533,0.91C510.591,156.49,510.828,156.897,511.124,156.897z"/>
		</g>
		<g>
			<path fill="#414042" d="M397.059,148.93h27.089c0.475,0,0.854-0.406,0.854-0.912c0-0.501-0.38-0.91-0.854-0.91h-27.089     c-0.472,0-0.85,0.409-0.85,0.91C396.209,148.523,396.587,148.93,397.059,148.93z"/>
		</g>
		<g>
			<path fill="#414042" d="M446.466,148.93h-17.347c-0.306,0-0.548-0.406-0.548-0.912c0-0.501,0.242-0.91,0.548-0.91h17.347     c0.301,0,0.542,0.409,0.542,0.91C447.008,148.523,446.767,148.93,446.466,148.93z"/>
		</g>
		<g>
			<path fill="#414042" d="M468.148,101.642h-17.347c-0.305,0-0.548-0.407-0.548-0.912c0-0.502,0.243-0.909,0.548-0.909h17.347     c0.301,0,0.542,0.407,0.542,0.909C468.69,101.235,468.449,101.642,468.148,101.642z"/>
		</g>
		<g>
			<path fill="#414042" d="M483.148,94.32h-31.888c-0.561,0-1.007-0.407-1.007-0.912c0-0.502,0.446-0.909,1.007-0.909h31.888     c0.554,0,0.997,0.407,0.997,0.909C484.146,93.914,483.702,94.32,483.148,94.32z"/>
		</g>
		<g>
			<path fill="#414042" d="M576.645,110.559h-23.977c-0.421,0-0.758-0.407-0.758-0.912c0-0.502,0.337-0.909,0.758-0.909h23.977     c0.417,0,0.75,0.407,0.75,0.909C577.395,110.151,577.062,110.559,576.645,110.559z"/>
		</g>
		<g>
			<path fill="#414042" d="M100.989,100.731H77.013c-0.421,0-0.757-0.407-0.757-0.912c0-0.502,0.336-0.908,0.757-0.908h23.977     c0.417,0,0.75,0.406,0.75,0.908C101.739,100.325,101.406,100.731,100.989,100.731z"/>
		</g>
		<g>
			<path fill="#414042" d="M101.342,109.131H88.642c-0.224,0-0.401-0.407-0.401-0.912c0-0.502,0.178-0.909,0.401-0.909h12.701     c0.221,0,0.397,0.407,0.397,0.909C101.739,108.724,101.563,109.131,101.342,109.131z"/>
		</g>
		<g>
			<path fill="#414042" d="M515.409,69.319h-34.867c-0.613,0-1.101-0.407-1.101-0.912c0-0.502,0.487-0.909,1.101-0.909h34.867     c0.607,0,1.092,0.407,1.092,0.909C516.501,68.913,516.017,69.319,515.409,69.319z"/>
		</g>
		<g>
			<path fill="#414042" d="M233.207,251.796H408.91c3.069,0,5.537-0.404,5.537-0.91c0-0.502-2.468-0.911-5.537-0.911H233.207     c-3.038,0-5.496,0.409-5.496,0.911C227.711,251.392,230.169,251.796,233.207,251.796z"/>
		</g>
		<g>
			<path fill="#414042" d="M140.29,242.138h56.11c0.98,0,1.768-0.405,1.768-0.909s-0.788-0.912-1.768-0.912h-56.11     c-0.97,0-1.755,0.408-1.755,0.912S139.319,242.138,140.29,242.138z"/>
		</g>
		<g>
			<path fill="#414042" d="M457.279,242.138h56.111c0.979,0,1.768-0.405,1.768-0.909s-0.788-0.912-1.768-0.912h-56.111     c-0.97,0-1.754,0.408-1.754,0.912S456.31,242.138,457.279,242.138z"/>
		</g>
		<g>
			<path fill="#414042" d="M319.382,262.797h135.417c2.366,0,4.269-0.404,4.269-0.909c0-0.504-1.902-0.912-4.269-0.912H319.382     c-2.342,0-4.235,0.408-4.235,0.912C315.146,262.393,317.04,262.797,319.382,262.797z"/>
		</g>
		<g>
			<path fill="#414042" d="M224.157,87.736c-1.839,0-3.333-1.495-3.333-3.331c0-1.842,1.495-3.337,3.333-3.337     c1.838,0,3.333,1.495,3.333,3.337C227.49,86.242,225.995,87.736,224.157,87.736z M224.157,82.388     c-1.109,0-2.017,0.905-2.017,2.018c0,1.112,0.908,2.017,2.017,2.017c1.113,0,2.018-0.904,2.018-2.017     C226.175,83.293,225.27,82.388,224.157,82.388z"/>
		</g>
		<g>
			<path fill="#414042" d="M120.502,161.59c-1.839,0-3.333-1.495-3.333-3.331c0-1.842,1.495-3.337,3.333-3.337     c1.837,0,3.333,1.495,3.333,3.337C123.835,160.095,122.34,161.59,120.502,161.59z M120.502,156.241     c-1.109,0-2.018,0.905-2.018,2.018s0.908,2.016,2.018,2.016c1.113,0,2.018-0.903,2.018-2.016S121.615,156.241,120.502,156.241z"/>
		</g>
		<g>
			<path fill="#414042" d="M432.766,250.885c-2.134,0-3.868-1.734-3.868-3.866c0-2.137,1.734-3.871,3.868-3.871     c2.133,0,3.867,1.734,3.867,3.871C436.633,249.15,434.898,250.885,432.766,250.885z M432.766,244.678     c-1.288,0-2.343,1.048-2.343,2.341c0,1.292,1.055,2.34,2.343,2.34c1.29,0,2.342-1.048,2.342-2.34     C435.107,245.726,434.056,244.678,432.766,244.678z"/>
		</g>
		<g>
			<path fill="#414042" d="M230.359,265.835c-1.676,0-3.038-1.362-3.038-3.035c0-1.679,1.362-3.042,3.038-3.042     c1.675,0,3.038,1.363,3.038,3.042C233.396,264.473,232.034,265.835,230.359,265.835z M230.359,260.961     c-1.012,0-1.84,0.824-1.84,1.839c0,1.013,0.828,1.836,1.84,1.836c1.013,0,1.839-0.823,1.839-1.836     C232.198,261.785,231.372,260.961,230.359,260.961z"/>
		</g>
		<g>
			<path fill="#414042" d="M209.199,192.185c-1.061,0-1.923-0.862-1.923-1.923c0-1.064,0.862-1.926,1.923-1.926     c1.062,0,1.923,0.861,1.923,1.926C211.122,191.322,210.26,192.185,209.199,192.185z M209.199,189.097     c-0.641,0-1.165,0.523-1.165,1.165c0,0.641,0.524,1.162,1.165,1.162c0.642,0,1.165-0.521,1.165-1.162     C210.364,189.62,209.841,189.097,209.199,189.097z"/>
		</g>
		<g>
			<path fill="#414042" d="M371.745,48.789c-1.201,0-2.179-0.976-2.179-2.177c0-1.206,0.978-2.182,2.179-2.182     c1.203,0,2.179,0.977,2.179,2.182C373.924,47.813,372.948,48.789,371.745,48.789z M371.745,45.291     c-0.725,0-1.319,0.592-1.319,1.321c0,0.724,0.595,1.315,1.319,1.315c0.728,0,1.32-0.591,1.32-1.315     C373.065,45.883,372.473,45.291,371.745,45.291z"/>
		</g>
		<g>
			<path fill="#414042" d="M571.516,189.848c-1.468,0-2.658-1.192-2.658-2.656c0-1.471,1.19-2.66,2.658-2.66     c1.465,0,2.657,1.189,2.657,2.66C574.173,188.655,572.98,189.848,571.516,189.848z M571.516,185.582     c-0.886,0-1.611,0.721-1.611,1.609c0,0.887,0.726,1.606,1.611,1.606s1.608-0.72,1.608-1.606     C573.124,186.303,572.401,185.582,571.516,185.582z"/>
		</g>
		<g>
			<path fill="#414042" d="M394.786,96.528c-2.224,0-4.027-1.805-4.027-4.025c0-2.227,1.804-4.031,4.027-4.031     c2.221,0,4.026,1.804,4.026,4.031C398.813,94.723,397.007,96.528,394.786,96.528z M394.786,90.065     c-1.341,0-2.44,1.092-2.44,2.437c0,1.344,1.1,2.438,2.44,2.438c1.344,0,2.438-1.093,2.438-2.438     C397.225,91.157,396.13,90.065,394.786,90.065z"/>
		</g>
		<g>
			<path fill="#414042" d="M253.64,49.411h2.685v-2.803h1.939v2.803h2.701v1.82h-2.701v2.836h-1.939v-2.836h-2.685V49.411z"/>
		</g>
		<g>
			<path fill="#414042" d="M394.836,165.749h1.686v-1.759h1.219v1.759h1.695v1.145h-1.695v1.78h-1.219v-1.78h-1.686V165.749z"/>
		</g>
		<g>
			<path fill="#414042" d="M142.63,195.149h2.699v-2.818h1.952v2.818h2.716v1.832h-2.716v2.852h-1.952v-2.852h-2.699V195.149z"/>
		</g>
		<g>
			<path fill="#414042" d="M169.85,89.742h1.417v-1.478h1.023v1.478h1.425v0.962h-1.425v1.495h-1.023v-1.495h-1.417V89.742z"/>
		</g>
		<g>
			<path fill="#414042" d="M176.981,126.645h2.175v-2.27h1.573v2.27h2.188v1.476h-2.188v2.298h-1.573v-2.298h-2.175V126.645z"/>
		</g>
		<g>
			<path fill="#414042" d="M360.021,79.551h3.422v-3.572h2.474v3.572h3.442v2.324h-3.442v3.614h-2.474v-3.614h-3.422V79.551z"/>
		</g>
		<g>
			<path fill="#414042" d="M553.539,147.726h1.685v-1.76h1.219v1.76h1.695v1.145h-1.695v1.78h-1.219v-1.78h-1.685V147.726z"/>
		</g>
		<g>
			<path fill="#414042" d="M523.828,238.301h1.686v-1.759h1.219v1.759h1.695v1.146h-1.695v1.78h-1.219v-1.78h-1.686V238.301z"/>
		</g>
		<g>
			<path fill="#414042" d="M468.19,260.494h1.392v-1.452h1.005v1.452h1.399v0.946h-1.399v1.469h-1.005v-1.469h-1.392V260.494z"/>
		</g>
		<g>
			<path fill="#414042" d="M477.054,107.996h2.827v-2.95h2.046v2.95h2.845v1.921h-2.845v2.986h-2.046v-2.986h-2.827V107.996z"/>
		</g>
		<g>
			<path fill="#414042" d="M249.143,157.485h1.687v-1.76h1.218v1.76h1.695v1.144h-1.695v1.781h-1.218v-1.781h-1.687V157.485z"/>
		</g>
		<g>
			<path fill="#414042" d="M78.91,201.479h2.107v-2.199h1.524v2.199h2.119v1.43h-2.119v2.227h-1.524v-2.227H78.91V201.479z"/>
		</g>
		<g>
			<rect x="158.442" y="207.961" fill="#414042" width="1.821" height="1.82"/>
			<rect x="162.282" y="207.961" fill="#414042" width="1.821" height="1.82"/>
			<rect x="166.122" y="207.961" fill="#414042" width="1.821" height="1.82"/>
			<rect x="169.962" y="207.961" fill="#414042" width="1.821" height="1.82"/>
			<rect x="173.802" y="207.961" fill="#414042" width="1.821" height="1.82"/>
			<rect x="177.642" y="207.961" fill="#414042" width="1.821" height="1.82"/>
			<rect x="181.481" y="207.961" fill="#414042" width="1.821" height="1.82"/>
			<rect x="185.321" y="207.961" fill="#414042" width="1.821" height="1.82"/>
			<rect x="189.161" y="207.961" fill="#414042" width="1.821" height="1.82"/>
			<rect x="193.001" y="207.961" fill="#414042" width="1.821" height="1.82"/>
		</g>
		<g>
			<rect x="205.499" y="157.473" fill="#414042" width="1.821" height="1.82"/>
			<rect x="209.338" y="157.473" fill="#414042" width="1.821" height="1.82"/>
			<rect x="213.178" y="157.473" fill="#414042" width="1.821" height="1.82"/>
			<rect x="217.018" y="157.473" fill="#414042" width="1.821" height="1.82"/>
			<rect x="220.858" y="157.473" fill="#414042" width="1.821" height="1.82"/>
			<rect x="224.698" y="157.473" fill="#414042" width="1.821" height="1.82"/>
			<rect x="228.538" y="157.473" fill="#414042" width="1.821" height="1.82"/>
			<rect x="232.378" y="157.473" fill="#414042" width="1.821" height="1.82"/>
			<rect x="236.218" y="157.473" fill="#414042" width="1.821" height="1.82"/>
			<rect x="240.058" y="157.473" fill="#414042" width="1.821" height="1.82"/>
		</g>
		<g>
			<rect x="245.783" y="78.995" fill="#414042" width="1.821" height="1.821"/>
			<rect x="249.623" y="78.995" fill="#414042" width="1.821" height="1.821"/>
			<rect x="253.462" y="78.995" fill="#414042" width="1.821" height="1.821"/>
			<rect x="257.302" y="78.995" fill="#414042" width="1.821" height="1.821"/>
			<rect x="261.142" y="78.995" fill="#414042" width="1.821" height="1.821"/>
			<rect x="264.982" y="78.995" fill="#414042" width="1.821" height="1.821"/>
			<rect x="268.822" y="78.995" fill="#414042" width="1.821" height="1.821"/>
			<rect x="272.662" y="78.995" fill="#414042" width="1.821" height="1.821"/>
			<rect x="276.502" y="78.995" fill="#414042" width="1.821" height="1.821"/>
			<rect x="280.342" y="78.995" fill="#414042" width="1.821" height="1.821"/>
		</g>
		<g>
			<rect x="367.907" y="63.841" fill="#414042" width="1.82" height="1.821"/>
			<rect x="371.747" y="63.841" fill="#414042" width="1.82" height="1.821"/>
			<rect x="375.587" y="63.841" fill="#414042" width="1.82" height="1.821"/>
			<rect x="379.427" y="63.841" fill="#414042" width="1.82" height="1.821"/>
			<rect x="383.267" y="63.841" fill="#414042" width="1.82" height="1.821"/>
			<rect x="387.106" y="63.841" fill="#414042" width="1.82" height="1.821"/>
			<rect x="390.946" y="63.841" fill="#414042" width="1.82" height="1.821"/>
			<rect x="394.786" y="63.841" fill="#414042" width="1.82" height="1.821"/>
			<rect x="398.625" y="63.841" fill="#414042" width="1.822" height="1.821"/>
			<rect x="402.465" y="63.841" fill="#414042" width="1.822" height="1.821"/>
		</g>
		<g>
			<rect x="508.947" y="148.308" fill="#414042" width="1.82" height="1.822"/>
			<rect x="512.787" y="148.308" fill="#414042" width="1.82" height="1.822"/>
			<rect x="516.627" y="148.308" fill="#414042" width="1.82" height="1.822"/>
			<rect x="520.467" y="148.308" fill="#414042" width="1.82" height="1.822"/>
			<rect x="524.307" y="148.308" fill="#414042" width="1.82" height="1.822"/>
			<rect x="528.146" y="148.308" fill="#414042" width="1.82" height="1.822"/>
			<rect x="531.986" y="148.308" fill="#414042" width="1.82" height="1.822"/>
			<rect x="535.826" y="148.308" fill="#414042" width="1.82" height="1.822"/>
			<rect x="539.666" y="148.308" fill="#414042" width="1.82" height="1.822"/>
			<rect x="543.506" y="148.308" fill="#414042" width="1.821" height="1.822"/>
		</g>
		<g>
			<rect x="393.139" y="177.853" fill="#414042" width="1.82" height="1.822"/>
			<rect x="396.979" y="177.853" fill="#414042" width="1.82" height="1.822"/>
			<rect x="400.818" y="177.853" fill="#414042" width="1.82" height="1.822"/>
			<rect x="404.658" y="177.853" fill="#414042" width="1.82" height="1.822"/>
			<rect x="408.498" y="177.853" fill="#414042" width="1.82" height="1.822"/>
			<rect x="412.337" y="177.853" fill="#414042" width="1.821" height="1.822"/>
			<rect x="416.177" y="177.853" fill="#414042" width="1.821" height="1.822"/>
			<rect x="420.017" y="177.853" fill="#414042" width="1.821" height="1.822"/>
			<rect x="423.856" y="177.853" fill="#414042" width="1.821" height="1.822"/>
			<rect x="427.696" y="177.853" fill="#414042" width="1.821" height="1.822"/>
		</g>
		<g>
			<rect x="449.874" y="232.622" fill="#414042" width="1.82" height="1.82"/>
			<rect x="453.714" y="232.622" fill="#414042" width="1.82" height="1.82"/>
			<rect x="457.554" y="232.622" fill="#414042" width="1.82" height="1.82"/>
			<rect x="461.394" y="232.622" fill="#414042" width="1.82" height="1.82"/>
			<rect x="465.233" y="232.622" fill="#414042" width="1.82" height="1.82"/>
			<rect x="469.073" y="232.622" fill="#414042" width="1.82" height="1.82"/>
			<rect x="472.913" y="232.622" fill="#414042" width="1.82" height="1.82"/>
			<rect x="476.752" y="232.622" fill="#414042" width="1.821" height="1.82"/>
			<rect x="480.592" y="232.622" fill="#414042" width="1.821" height="1.82"/>
			<rect x="484.432" y="232.622" fill="#414042" width="1.822" height="1.82"/>
		</g>
		<g>
			<rect x="259.222" y="260.976" fill="#414042" width="1.821" height="1.821"/>
			<rect x="263.062" y="260.976" fill="#414042" width="1.821" height="1.821"/>
			<rect x="266.902" y="260.976" fill="#414042" width="1.821" height="1.821"/>
			<rect x="270.742" y="260.976" fill="#414042" width="1.821" height="1.821"/>
			<rect x="274.582" y="260.976" fill="#414042" width="1.821" height="1.821"/>
			<rect x="278.422" y="260.976" fill="#414042" width="1.821" height="1.821"/>
			<rect x="282.262" y="260.976" fill="#414042" width="1.821" height="1.821"/>
			<rect x="286.102" y="260.976" fill="#414042" width="1.821" height="1.821"/>
			<rect x="289.941" y="260.976" fill="#414042" width="1.821" height="1.821"/>
			<rect x="293.781" y="260.976" fill="#414042" width="1.821" height="1.821"/>
		</g>
		<g>
			<path fill="#414042" d="M179.456,229.975l3.485-6.032l3.473,6.032H179.456z M181.375,228.867h3.135l-1.569-2.713L181.375,228.867     z"/>
		</g>
		<g>
			<path fill="#414042" d="M548.766,211.688l4.129-7.147l4.113,7.147H548.766z M551.038,210.377h3.715l-1.858-3.214L551.038,210.377     z"/>
		</g>
		<g>
			<path fill="#414042" d="M207.038,253.549l4.128-7.147l4.115,7.147H207.038z M209.31,252.238h3.715l-1.859-3.214L209.31,252.238z"/>
		</g>
		<g>
			<path fill="#414042" d="M178.271,75.556l4.129-7.147l4.114,7.147H178.271z M180.543,74.246h3.714l-1.858-3.214L180.543,74.246z"/>
		</g>
		<g>
			<path fill="#414042" d="M287.858,71.982l4.703-8.141l4.688,8.141H287.858z M290.448,70.489h4.23l-2.117-3.661L290.448,70.489z"/>
		</g>
		<g>
			<path fill="#414042" d="M196.48,222.075l-3.473,6.033l-3.485-6.033H196.48z M193.007,225.895l1.568-2.713h-3.134L193.007,225.895     z"/>
		</g>
		<g>
			<path fill="#414042" d="M98.731,142.951l-4.858,8.441l-4.875-8.441H98.731z M93.873,148.295l2.194-3.795h-4.385L93.873,148.295z"/>
		</g>
		<g>
			<path fill="#414042" d="M466.038,72.455l-4.767,8.28l-4.781-8.28H466.038z M461.271,77.698l2.153-3.724h-4.302L461.271,77.698z"/>
		</g>
	</g>
	<g>
		<path fill="#808285" d="M193.336,190.084h-33.413c-0.766,0-1.387-0.621-1.387-1.387v-19.868c0-0.767,0.621-1.388,1.387-1.388    h33.413c0.767,0,1.387,0.621,1.387,1.388v19.868C194.724,189.463,194.103,190.084,193.336,190.084z"/>
		<path fill="#A7A9AC" d="M158.537,176.211v-7.382c0-0.767,0.621-1.388,1.387-1.388h33.413c0.767,0,1.387,0.621,1.387,1.388v7.382    H158.537z"/>
		<g>
			<path fill="#414042" d="M193.336,191.155h-33.413c-1.355,0-2.457-1.102-2.457-2.458v-19.868c0-1.354,1.102-2.458,2.457-2.458     h33.413c1.355,0,2.458,1.104,2.458,2.458v19.868C195.794,190.054,194.691,191.155,193.336,191.155z M159.923,168.514     c-0.174,0-0.315,0.142-0.315,0.315v19.868c0,0.175,0.142,0.315,0.315,0.315h33.413c0.175,0,0.316-0.141,0.316-0.315v-19.868     c0-0.174-0.141-0.315-0.316-0.315H159.923z"/>
		</g>
		<g>
			<rect x="158.537" y="175.124" fill="#414042" width="36.187" height="2.141"/>
		</g>
		<g>
			<path fill="#414042" d="M184.548,168.456c-0.591,0-1.071-0.48-1.071-1.071c0-2.563-2.084-4.647-4.646-4.647h-4.399     c-2.562,0-4.646,2.085-4.646,4.647c0,0.591-0.479,1.071-1.071,1.071c-0.591,0-1.071-0.48-1.071-1.071     c0-3.744,3.045-6.788,6.788-6.788h4.399c3.743,0,6.788,3.044,6.788,6.788C185.619,167.976,185.14,168.456,184.548,168.456z"/>
		</g>
		<path fill="#FFFFFF" d="M182.889,153.379c0,0,0.293,0.311,0.659,0.69c0.361,0.388,1.912,0.672,2.192,1.441    c0.245,0.675,0.03,6.968-1.924,6.365c-0.416-0.127,0.063-3.781-0.206-3.676c-0.312,0.119-0.738,2.547-0.738,2.547v2.995    c0,0.782-0.632,1.416-1.417,1.416c-0.778,0-1.412-0.634-1.412-1.416v-1.315l-0.309-0.01v0.987c0,0.779-0.633,1.414-1.414,1.414    c-0.782,0-1.416-0.635-1.416-1.414v-1.088l-0.308-0.01v1.098c0,0.779-0.634,1.414-1.415,1.414c-0.781,0-1.414-0.635-1.414-1.414    v-1.198l-0.445-0.014v0.461c0,0.705-0.572,1.276-1.279,1.276c-0.706,0-1.276-0.571-1.276-1.276v-2.329    c-0.416-3.383,0.606-5.416,0.606-5.416c0.101-0.693,0.91-1.47,1.082-1.862c0.146-0.344,0.21-0.724,0.223-1.657l9.293-0.032    C181.972,151.356,182.149,152.106,182.889,153.379z"/>
		<g>
			<path fill="#414042" d="M181.455,166.229c-0.693,0-1.322-0.287-1.773-0.748c-0.853,0.563-2.141,0.495-2.931-0.152     c-0.428,0.351-0.975,0.56-1.569,0.56c-0.873,0-1.644-0.453-2.087-1.136c-0.316,0.158-0.673,0.247-1.052,0.247     c-1.294,0-2.347-1.053-2.347-2.347v-2.329c-0.382-3.058,0.402-5.17,0.65-5.743c0.149-0.65,0.576-1.22,0.895-1.646     c0.1-0.131,0.192-0.245,0.242-0.339c0.053-0.125,0.112-0.337,0.124-1.222l0.013-1.052l11.199-0.041l0.195,0.83l0,0     c0,0,0.159,0.602,0.737,1.622l0.565,0.592c0.066,0.036,0.243,0.102,0.432,0.184c0.702,0.304,1.664,0.721,1.997,1.636     c0.317,0.874,0.009,5.72-1.081,7.27c-0.465,0.664-1.033,0.763-1.33,0.763l-0.26-0.022c-0.045-0.009-0.09-0.018-0.133-0.027v0.615     C183.942,165.113,182.827,166.229,181.455,166.229z M178.664,161.312l2.451,0.078v2.353c0,0.381,0.687,0.379,0.687,0l0.016-3.181     c0.532-3.027,0.979-3.198,1.413-3.361l0.391-0.073h0.494l0.335,0.384c0.092,0.108,0.155,0.217,0.198,0.33     c0.082-0.828,0.114-1.578,0.077-1.942c-0.16-0.135-0.587-0.32-0.827-0.424c-0.454-0.197-0.846-0.366-1.134-0.675l-0.801-0.883     c-0.35-0.604-0.588-1.105-0.747-1.487l-7.522,0.026c-0.046,0.406-0.125,0.709-0.252,1.009c-0.116,0.261-0.287,0.491-0.486,0.756     c-0.16,0.215-0.495,0.661-0.521,0.842l-0.104,0.327c-0.004,0.011-0.866,1.828-0.5,4.804l0.007,2.46c0,0.228,0.414,0.228,0.414,0     v-1.565l2.587,0.081v2.235c0,0.379,0.688,0.379,0.688,0v-2.203l2.45,0.077v2.126c0,0.377,0.687,0.379,0.687,0V161.312z"/>
		</g>
		<rect x="171.468" y="142.041" fill="#2ECCA7" width="11.87" height="9.502"/>
		<rect x="180.045" y="142.041" fill="#82E0CA" width="3.292" height="9.502"/>
		<g>
			<path fill="#414042" d="M184.408,152.614h-14.011V140.97h14.011V152.614z M172.539,150.472h9.728v-7.36h-9.728V150.472z"/>
		</g>
		<path fill="#FFFFFF" d="M169.155,178.164c0,0.107-0.088,0.196-0.196,0.196h-2.596c-0.108,0-0.196-0.089-0.196-0.196v-3.941    c0-0.107,0.087-0.194,0.196-0.194h2.596c0.108,0,0.196,0.087,0.196,0.194V178.164z"/>
		<g>
			<path fill="#414042" d="M168.959,179.431h-2.596c-0.698,0-1.267-0.567-1.267-1.267v-3.941c0-0.697,0.569-1.265,1.267-1.265h2.596     c0.698,0,1.267,0.567,1.267,1.265v3.941C170.226,178.863,169.658,179.431,168.959,179.431z M167.238,177.29h0.847v-2.19h-0.847     V177.29z"/>
		</g>
		<path fill="#FFFFFF" d="M187.31,178.164c0,0.107-0.088,0.196-0.196,0.196h-2.596c-0.108,0-0.195-0.089-0.195-0.196v-3.941    c0-0.107,0.087-0.194,0.195-0.194h2.596c0.108,0,0.196,0.087,0.196,0.194V178.164z"/>
		<g>
			<path fill="#414042" d="M187.113,179.431h-2.596c-0.698,0-1.266-0.567-1.266-1.267v-3.941c0-0.697,0.568-1.265,1.266-1.265h2.596     c0.698,0,1.268,0.567,1.268,1.265v3.941C188.381,178.863,187.812,179.431,187.113,179.431z M185.393,177.29h0.847v-2.19h-0.847     V177.29z"/>
		</g>
	</g>
	<g>
		<polygon fill="#F1F2F2" points="305.059,55.66 348.703,55.66 327.139,43.225   "/>
		<path fill="#F1F2F2" d="M315.78,73.895h-3.288c-0.697,0-1.26-0.563-1.26-1.258V55.609h5.809v17.027    C317.041,73.331,316.475,73.895,315.78,73.895z"/>
		<path fill="#D1D3D4" d="M314.136,55.609h-2.903v17.027c0,0.694,0.563,1.258,1.26,1.258h1.643V55.609z"/>
		<g>
			<path fill="#414042" d="M315.78,74.965h-3.288c-1.285,0-2.332-1.044-2.332-2.328V54.539h7.951v18.098     C318.112,73.921,317.066,74.965,315.78,74.965z M312.303,56.68v15.957c0,0.103,0.085,0.187,0.189,0.187h3.288     c0.105,0,0.19-0.083,0.19-0.187V56.68H312.303z"/>
		</g>
		<g>
			<path fill="#414042" d="M348.075,56.73h-42.264c-0.591,0-1.071-0.479-1.071-1.071s0.479-1.071,1.071-1.071h42.264     c0.591,0,1.071,0.48,1.071,1.071S348.666,56.73,348.075,56.73z"/>
		</g>
		<path fill="#F1F2F2" d="M328.269,73.895h-3.292c-0.694,0-1.257-0.563-1.257-1.258V55.609h5.805v17.027    C329.524,73.331,328.962,73.895,328.269,73.895z"/>
		<path fill="#D1D3D4" d="M326.622,55.609h-2.902v17.027c0,0.694,0.563,1.258,1.257,1.258h1.645V55.609z"/>
		<g>
			<path fill="#414042" d="M328.269,74.965h-3.292c-1.284,0-2.328-1.044-2.328-2.328V54.539h7.948v18.098     C330.597,73.921,329.553,74.965,328.269,74.965z M324.791,56.68v15.957c0,0.103,0.084,0.187,0.187,0.187h3.292     c0.104,0,0.186-0.083,0.186-0.187V56.68H324.791z"/>
		</g>
		<path fill="#F1F2F2" d="M340.753,73.895h-3.288c-0.697,0-1.261-0.563-1.261-1.258V55.609h5.807v17.027    C342.011,73.331,341.45,73.895,340.753,73.895z"/>
		<path fill="#D1D3D4" d="M339.106,55.609h-2.902v17.027c0,0.694,0.563,1.258,1.261,1.258h1.642V55.609z"/>
		<g>
			<path fill="#414042" d="M340.753,74.965h-3.288c-1.286,0-2.331-1.044-2.331-2.328V54.539h7.947v18.098     C343.081,73.921,342.037,74.965,340.753,74.965z M337.274,56.68v15.957c0,0.103,0.086,0.187,0.19,0.187h3.288     c0.104,0,0.186-0.082,0.186-0.187V56.68H337.274z"/>
		</g>
		<g>
			<path fill="#414042" d="M302.533,58.152c-0.373,0-0.738-0.195-0.934-0.545c-0.29-0.515-0.109-1.168,0.407-1.458l23.511-13.24     c0.952-0.533,2.316-0.515,3.251,0.041l22.246,13.212c0.509,0.301,0.676,0.959,0.373,1.466c-0.3,0.508-0.957,0.675-1.466,0.374     l-22.248-13.213c-0.267-0.157-0.836-0.164-1.109-0.012l-23.507,13.237C302.89,58.108,302.711,58.152,302.533,58.152z"/>
		</g>
		<rect x="309.264" y="73.895" fill="#F1F2F2" width="35.233" height="3.36"/>
		<g>
			<path fill="#414042" d="M345.567,78.325h-37.375v-5.502h37.375V78.325z M310.334,76.184h33.092v-1.219h-33.092V76.184z"/>
		</g>
		<rect x="306.695" y="77.982" fill="#D1D3D4" width="40.368" height="3.848"/>
		<g>
			<path fill="#414042" d="M348.134,82.901h-42.509v-5.99h42.509V82.901z M307.767,80.76h38.226v-1.707h-38.226V80.76z"/>
		</g>
		<g>
			<path fill="#414042" d="M327.139,54.24c-2.153,0-3.904-1.751-3.904-3.904c0-2.151,1.751-3.901,3.904-3.901     c2.151,0,3.901,1.75,3.901,3.901C331.04,52.489,329.29,54.24,327.139,54.24z M327.139,48.576c-0.972,0-1.763,0.789-1.763,1.76     c0,0.972,0.791,1.762,1.763,1.762c0.971,0,1.76-0.79,1.76-1.762C328.898,49.365,328.109,48.576,327.139,48.576z"/>
		</g>
		<polygon fill="#2ECCA7" points="318.43,40.953 326.499,40.953 326.499,36.245 318.43,36.245 317.041,38.621   "/>
		<g>
			<path fill="#414042" d="M326.499,42.023h-8.679l-2.022-3.396l2.017-3.453h8.684c0.593,0,1.072,0.479,1.072,1.071     s-0.479,1.071-1.072,1.071h-7.455l-0.761,1.299l0.756,1.266h7.46c0.593,0,1.072,0.48,1.072,1.071     C327.571,41.543,327.092,42.023,326.499,42.023z"/>
		</g>
		<g>
			<path fill="#414042" d="M326.622,44.296c-0.59,0-1.07-0.48-1.07-1.071v-7.816c0-0.591,0.48-1.071,1.07-1.071     c0.593,0,1.071,0.48,1.071,1.071v7.816C327.693,43.816,327.215,44.296,326.622,44.296z"/>
		</g>
	</g>
	<g>
		<path fill="#2ECCA7" d="M125.856,196.082c0,8.347-6.767,15.111-15.112,15.111v-15.111H125.856z"/>
		<g>
			<path fill="#414042" d="M110.745,212.265h-1.071v-17.253h17.253v1.07C126.927,205.006,119.667,212.265,110.745,212.265z      M111.815,197.152v12.931c6.891-0.521,12.407-6.039,12.929-12.931H111.815z"/>
		</g>
		<g>
			<g>
				<path fill="#414042" d="M132.695,199.295c-0.035,0-0.068-0.001-0.103-0.004c-0.589-0.057-1.021-0.579-0.964-1.169      c0.065-0.687,0.098-1.374,0.098-2.04c0-0.591,0.48-1.07,1.071-1.07c0.591,0,1.071,0.479,1.071,1.07      c0,0.733-0.037,1.487-0.108,2.244C133.708,198.879,133.241,199.295,132.695,199.295z"/>
			</g>
			<g>
				<path fill="#414042" d="M117.14,218.263c-0.459,0-0.884-0.298-1.024-0.762c-0.171-0.565,0.148-1.162,0.714-1.334      c1.31-0.396,2.589-0.926,3.803-1.575c0.521-0.28,1.171-0.084,1.449,0.439c0.28,0.521,0.083,1.17-0.438,1.448      c-1.338,0.717-2.749,1.301-4.193,1.738C117.347,218.249,117.243,218.263,117.14,218.263z M124.735,214.199      c-0.309,0-0.616-0.132-0.828-0.39c-0.375-0.457-0.31-1.132,0.146-1.508c1.064-0.876,2.044-1.855,2.913-2.912      c0.376-0.459,1.049-0.525,1.507-0.148c0.457,0.376,0.523,1.051,0.148,1.507c-0.957,1.165-2.037,2.245-3.207,3.207      C125.215,214.12,124.974,214.199,124.735,214.199z M130.199,207.542c-0.171,0-0.344-0.04-0.505-0.127      c-0.521-0.278-0.718-0.928-0.438-1.449c0.649-1.209,1.178-2.489,1.575-3.803c0.17-0.567,0.767-0.895,1.334-0.716      c0.566,0.171,0.887,0.769,0.715,1.334c-0.437,1.449-1.021,2.861-1.737,4.195C130.951,207.338,130.581,207.542,130.199,207.542z"/>
			</g>
			<g>
				<path fill="#414042" d="M110.745,219.205c-0.591,0-1.071-0.479-1.071-1.07c0-0.591,0.479-1.071,1.071-1.071      c0.68,0,1.366-0.033,2.037-0.098c0.574-0.074,1.112,0.373,1.169,0.963c0.057,0.588-0.374,1.11-0.963,1.168      C112.249,219.169,111.493,219.205,110.745,219.205z"/>
			</g>
		</g>
		<path fill="#FFFFFF" d="M129.541,196.082c0-10.381-8.414-18.797-18.796-18.797c-10.382,0-18.798,8.416-18.798,18.797    c0,10.382,8.416,18.798,18.798,18.798v-18.798H129.541z"/>
		<g>
			<path fill="#414042" d="M111.815,215.951h-1.071c-10.956,0-19.869-8.914-19.869-19.869s8.913-19.869,19.869-19.869     c10.955,0,19.867,8.914,19.867,19.869v1.07h-18.796V215.951z M110.745,178.355c-9.775,0-17.727,7.951-17.727,17.727     c0,9.416,7.378,17.139,16.656,17.695v-18.766h18.765C127.882,185.733,120.159,178.355,110.745,178.355z"/>
		</g>
	</g>
	<g>
		<path fill="#E6E7E8" d="M535.914,84.004c4.397,5.399,0.951,12.056,0.951,12.056s-7.118,2.158-11.616-3.36    c-4.085-5.014-2.751-14.264-2.751-14.264S531.611,78.728,535.914,84.004z"/>
		<g>
			<path fill="#414042" d="M533.574,97.546c-2.626,0-6.345-0.724-9.154-4.17c-4.334-5.318-3.038-14.696-2.981-15.092l0.137-0.948     l0.957,0.031c0.393,0.011,9.653,0.371,14.211,5.962c4.787,5.875,1.227,12.927,1.073,13.223l-0.209,0.402l-0.432,0.131     C537.113,97.104,535.629,97.546,533.574,97.546z M523.456,79.583c-0.193,2.437-0.364,8.773,2.622,12.44     c2.279,2.794,5.335,3.381,7.496,3.381c1.108,0,2.021-0.152,2.535-0.261c0.626-1.467,2.311-6.368-1.024-10.463     C531.936,80.821,525.843,79.828,523.456,79.583z"/>
		</g>
		<g>
			<path fill="#414042" d="M536.865,97.13c-0.31,0-0.617-0.134-0.828-0.391l-9.548-11.657c-0.376-0.457-0.31-1.132,0.148-1.507     c0.457-0.374,1.131-0.309,1.508,0.149l9.548,11.656c0.375,0.458,0.308,1.132-0.149,1.507     C537.345,97.051,537.105,97.13,536.865,97.13z"/>
		</g>
		<g>
			<path fill="#414042" d="M534.481,94.631c-0.063,0-0.129-0.005-0.196-0.018l-5.865-1.084c-0.581-0.107-0.965-0.667-0.857-1.247     c0.107-0.583,0.65-0.974,1.247-0.859l5.867,1.085c0.58,0.107,0.965,0.667,0.856,1.247     C535.439,94.271,534.988,94.631,534.481,94.631z"/>
		</g>
		<g>
			<path fill="#414042" d="M534.705,94.481c-0.007,0-0.014,0-0.021,0c-0.59-0.013-1.061-0.501-1.049-1.092l0.118-5.965     c0.011-0.591,0.54-1.065,1.092-1.05c0.591,0.013,1.061,0.5,1.051,1.092l-0.12,5.965     C535.765,94.015,535.287,94.481,534.705,94.481z"/>
		</g>
		<g>
			<path fill="#414042" d="M530.465,89.704c-0.064,0-0.13-0.005-0.196-0.018l-5.865-1.085c-0.582-0.107-0.965-0.666-0.858-1.247     c0.108-0.583,0.651-0.967,1.248-0.859l5.866,1.085c0.581,0.107,0.965,0.667,0.857,1.247     C531.422,89.343,530.971,89.704,530.465,89.704z"/>
		</g>
		<g>
			<path fill="#414042" d="M530.69,89.557c-0.006,0-0.014,0-0.02,0c-0.592-0.013-1.062-0.501-1.051-1.092l0.116-5.968     c0.011-0.591,0.439-1.057,1.092-1.05c0.59,0.012,1.061,0.5,1.05,1.092l-0.116,5.968C531.751,89.09,531.273,89.557,530.69,89.557z     "/>
		</g>
		<g>
			<path fill="#414042" d="M540.194,117.359c-0.591,0-1.07-0.48-1.07-1.071v-11.023c0-1.252-0.511-3.235-1.114-4.33l-3.059-5.549     c-0.283-0.519-0.095-1.169,0.423-1.456c0.519-0.287,1.169-0.095,1.455,0.421l3.058,5.549c0.771,1.403,1.379,3.759,1.379,5.364     v11.023C541.266,116.879,540.785,117.359,540.194,117.359z"/>
		</g>
		<g>
			<path fill="#414042" d="M540.194,111.929c-0.591,0-1.07-0.479-1.07-1.071c0-1.301,0.094-4.498,0.954-6.061l5.347-7.962     c0.329-0.489,0.996-0.622,1.484-0.29c0.491,0.329,0.622,0.996,0.292,1.486l-5.298,7.88c-0.425,0.781-0.638,3.065-0.638,4.946     C541.266,111.45,540.785,111.929,540.194,111.929z"/>
		</g>
		<path fill="#939598" d="M544.464,118.07h-13.559c-0.789,0-1.159-0.58-0.829-1.296l3.087-3.826    c0.331-0.717,1.237-1.297,2.026-1.297h2.495h2.496c0.789,0,1.695,0.58,2.025,1.297l3.088,3.826    C545.624,117.49,545.253,118.07,544.464,118.07z"/>
		<g>
			<path fill="#414042" d="M544.464,119.141h-13.559c-0.748,0-1.382-0.318-1.735-0.873c-0.355-0.555-0.379-1.263-0.066-1.942     l0.139-0.226l3.015-3.734c0.545-1.027,1.777-1.786,2.933-1.786h4.991c1.155,0,2.388,0.759,2.932,1.786l3.152,3.959     c0.314,0.679,0.291,1.388-0.065,1.942C545.846,118.823,545.213,119.141,544.464,119.141z M531.275,116.993l12.824,0.006     l-2.864-3.604c-0.158-0.34-0.68-0.673-1.055-0.673h-4.991c-0.375,0-0.896,0.333-1.055,0.673l-0.138,0.226L531.275,116.993z"/>
		</g>
		<path fill="#FFFFFF" d="M534.963,105.802l6.955,6.514c2.041,1.563-0.072,4.886-1.997,3.125l-7.206-5.191l0.012,2.52l5.94,5.483    c0,0,4.773,0.85,5.336,0.999l4.284-1.944c0.882-0.397,1.916-0.009,2.317,0.872c0.398,0.881,0.008,1.917-0.873,2.317l-5.223,2.372    c-0.458,0.206-7.364,0.155-7.364,0.155l-14.914-7.213v-10.962l10.681-0.018C533.563,104.916,534.484,105.351,534.963,105.802z"/>
		<g>
			<path fill="#414042" d="M538.951,124.099l-2.057-0.007l-0.217-0.106l-15.519-7.503v-12.703l11.75-0.021     c1.012,0.124,2.149,0.662,2.787,1.262l6.954,6.514c1.032,0.784,1.447,2.134,1,3.455c-0.411,1.21-1.449,2.021-2.586,2.021     c-0.662,0-1.308-0.27-1.867-0.781l-5.207-3.745l5.855,5.481c1.303,0.026,3.104,0.079,4.001,0.18l3.999-1.815     c1.391-0.625,3.107,0.033,3.733,1.403c0.642,1.419,0.011,3.094-1.404,3.737l-5.223,2.372     C544.671,123.969,544.383,124.099,538.951,124.099z M537.391,121.953l1.561,0.004c3.974,0,4.973-0.078,5.212-0.109l5.125-2.327     c0.343-0.156,0.495-0.56,0.341-0.901c-0.149-0.329-0.567-0.489-0.901-0.337l-4.629,2.102l-0.369-0.099     c-0.352-0.071-2.529-0.153-4.335-0.186l-0.412-0.007l-7.325-6.857l-0.022-5.084l8.913,6.419c0.252,0.221,0.401,0.298,0.517,0.298     c0.203,0,0.449-0.248,0.557-0.566c0.087-0.256,0.156-0.747-0.354-1.138l-7.035-6.584c-0.317-0.298-1.027-0.633-1.461-0.691     l-9.469,0.025v9.221L537.391,121.953z"/>
		</g>
		<rect x="511.745" y="101.045" fill="#2ECCA7" width="9.836" height="17.207"/>
		<rect x="511.745" y="101.045" fill="#58D6B9" width="9.836" height="4.669"/>
		<g>
			<path fill="#414042" d="M520.281,119.323h-7.236c-1.307,0-2.37-1.063-2.37-2.37v-14.609c0-1.307,1.063-2.369,2.37-2.369h7.236     c1.307,0,2.37,1.063,2.37,2.369v14.609C522.651,118.261,521.588,119.323,520.281,119.323z M513.045,102.116     c-0.126,0-0.229,0.102-0.229,0.228v14.609c0,0.125,0.103,0.229,0.229,0.229h7.236c0.125,0,0.229-0.103,0.229-0.229v-14.609     c0-0.125-0.104-0.228-0.229-0.228H513.045z"/>
		</g>
		<circle fill="#2ECCA7" cx="550.761" cy="90.428" r="7.864"/>
		<g>
			<path fill="#414042" d="M550.761,99.361c-4.927,0-8.934-4.007-8.934-8.933c0-4.926,4.007-8.934,8.934-8.934     s8.935,4.008,8.935,8.934C559.695,95.354,555.688,99.361,550.761,99.361z M550.761,83.636c-3.745,0-6.791,3.047-6.791,6.792     c0,3.745,3.046,6.792,6.791,6.792s6.793-3.046,6.793-6.792C557.554,86.683,554.506,83.636,550.761,83.636z"/>
		</g>
		<g>
			<g>
				<path fill="#414042" d="M548.701,92.851c0.442,0.272,1.086,0.498,1.766,0.498c1.008,0,1.596-0.531,1.596-1.302      c0-0.711-0.407-1.118-1.438-1.516c-1.245-0.441-2.015-1.086-2.015-2.161c0-1.189,0.984-2.07,2.468-2.07      c0.781,0,1.348,0.181,1.687,0.372l-0.272,0.805c-0.248-0.137-0.758-0.363-1.449-0.363c-1.041,0-1.437,0.622-1.437,1.144      c0,0.712,0.464,1.063,1.518,1.471c1.289,0.498,1.946,1.12,1.946,2.24c0,1.177-0.872,2.196-2.673,2.196      c-0.733,0-1.539-0.216-1.946-0.487L548.701,92.851z"/>
			</g>
			<g>
				<path fill="#414042" d="M550.761,95.438c-0.279,0-0.507-0.316-0.507-0.707v-8.999c0-0.39,0.228-0.707,0.507-0.707      s0.506,0.317,0.506,0.707v8.999C551.267,95.121,551.04,95.438,550.761,95.438z"/>
			</g>
		</g>
	</g>
	<g>
		<path fill="#2ECCA7" d="M416.876,198.271c-8.451,0-15.304,6.854-15.304,15.308c0,8.45,6.853,15.302,15.304,15.302    c8.452,0,15.305-6.852,15.305-15.302C432.181,205.125,425.328,198.271,416.876,198.271z M416.876,224.902    c-6.252,0-11.322-5.071-11.322-11.324s5.07-11.328,11.322-11.328c6.256,0,11.324,5.075,11.324,11.328    S423.132,224.902,416.876,224.902z"/>
		<g>
			<path fill="#414042" d="M416.876,229.951c-9.029,0-16.375-7.345-16.375-16.373c0-9.031,7.346-16.378,16.375-16.378     s16.376,7.347,16.376,16.378C433.252,222.606,425.905,229.951,416.876,229.951z M416.876,199.343     c-7.85,0-14.233,6.385-14.233,14.235c0,7.847,6.384,14.231,14.233,14.231c7.848,0,14.234-6.385,14.234-14.231     C431.11,205.728,424.724,199.343,416.876,199.343z"/>
		</g>
		<g>
			<path fill="#414042" d="M416.876,225.974c-6.834,0-12.393-5.561-12.393-12.396c0-6.836,5.559-12.398,12.393-12.398     c6.835,0,12.396,5.563,12.396,12.398C429.271,220.413,423.711,225.974,416.876,225.974z M416.876,203.321     c-5.653,0-10.251,4.602-10.251,10.257c0,5.653,4.598,10.253,10.251,10.253c5.654,0,10.254-4.6,10.254-10.253     C427.13,207.923,422.53,203.321,416.876,203.321z"/>
		</g>
		<path fill="#2ECCA7" d="M423.225,213.578c0,3.505-2.841,6.346-6.349,6.346c-3.506,0-6.346-2.841-6.346-6.346    c0-3.508,2.84-6.352,6.346-6.352C420.384,207.227,423.225,210.07,423.225,213.578z"/>
		<g>
			<path fill="#414042" d="M416.876,220.994c-4.09,0-7.416-3.327-7.416-7.416c0-4.092,3.326-7.422,7.416-7.422     c4.092,0,7.421,3.33,7.421,7.422C424.297,217.667,420.968,220.994,416.876,220.994z M416.876,208.298     c-2.909,0-5.274,2.369-5.274,5.28c0,2.908,2.365,5.275,5.274,5.275c2.911,0,5.278-2.367,5.278-5.275     C422.154,210.667,419.787,208.298,416.876,208.298z"/>
		</g>
		<g>
			<path fill="#414042" d="M416.876,208.298c-0.592,0-1.07-0.48-1.07-1.071v-8.944c0-0.591,0.479-1.07,1.07-1.07     c0.591,0,1.07,0.479,1.07,1.07v8.944C417.946,207.817,417.467,208.298,416.876,208.298z"/>
		</g>
		<g>
			<path fill="#414042" d="M418.591,192.262l-0.644,6.021c-0.063,0.592-0.595,1.019-1.186,0.957     c-0.513-0.057-0.903-0.463-0.956-0.957l-0.644-6.021c-0.102-0.947,0.584-1.796,1.531-1.897c0.946-0.103,1.796,0.584,1.897,1.531     C418.604,192.016,418.604,192.146,418.591,192.262z"/>
		</g>
		<g>
			<path fill="#414042" d="M429.088,196.022l-3.585,4.878c-0.354,0.48-1.026,0.583-1.507,0.23c-0.417-0.306-0.548-0.854-0.346-1.306     l2.474-5.528c0.389-0.87,1.409-1.258,2.278-0.87c0.87,0.39,1.26,1.409,0.87,2.279     C429.222,195.815,429.157,195.928,429.088,196.022z"/>
		</g>
		<g>
			<path fill="#414042" d="M436.229,204.48l-5.545,2.432c-0.544,0.238-1.18-0.011-1.418-0.555c-0.208-0.474-0.048-1.014,0.355-1.306     l4.907-3.547c0.771-0.558,1.849-0.385,2.406,0.386c0.558,0.772,0.385,1.851-0.387,2.408     C436.449,204.37,436.336,204.433,436.229,204.48z"/>
		</g>
		<g>
			<path fill="#414042" d="M438.171,215.541l-6.014-0.712c-0.59-0.07-1.013-0.605-0.942-1.196c0.062-0.513,0.474-0.898,0.968-0.946     l6.027-0.573c0.948-0.09,1.79,0.605,1.88,1.552c0.09,0.949-0.605,1.791-1.552,1.88     C438.416,215.558,438.286,215.555,438.171,215.541z"/>
		</g>
		<g>
			<path fill="#414042" d="M434.289,225.992l-4.84-3.645c-0.475-0.358-0.57-1.033-0.213-1.508c0.312-0.412,0.861-0.537,1.312-0.329     l5.501,2.54c0.864,0.398,1.242,1.424,0.842,2.288c-0.398,0.864-1.424,1.24-2.288,0.842     C434.493,226.13,434.383,226.063,434.289,225.992z"/>
		</g>
		<g>
			<path fill="#414042" d="M425.673,232.638l-2.349-5.582c-0.231-0.548,0.026-1.18,0.574-1.41c0.478-0.201,1.016-0.032,1.3,0.375     l3.475,4.962c0.547,0.778,0.357,1.854-0.422,2.399c-0.78,0.547-1.854,0.358-2.401-0.423     C425.779,232.859,425.719,232.746,425.673,232.638z"/>
		</g>
		<g>
			<path fill="#414042" d="M415.071,234.327l0.785-6.005c0.077-0.59,0.617-1.005,1.206-0.929c0.514,0.067,0.894,0.485,0.935,0.979     l0.503,6.035c0.078,0.948-0.628,1.782-1.575,1.862c-0.95,0.078-1.782-0.627-1.862-1.576     C415.054,234.572,415.058,234.443,415.071,234.327z"/>
		</g>
		<g>
			<path fill="#414042" d="M404.606,230.843l3.7-4.797c0.362-0.472,1.039-0.559,1.51-0.195c0.409,0.316,0.528,0.868,0.313,1.316     l-2.604,5.469c-0.408,0.859-1.438,1.225-2.297,0.815c-0.859-0.408-1.226-1.438-0.814-2.298     C404.467,231.043,404.533,230.935,404.606,230.843z"/>
		</g>
		<g>
			<path fill="#414042" d="M397.283,222.766l5.611-2.28c0.551-0.224,1.179,0.042,1.402,0.593c0.195,0.478,0.021,1.015-0.39,1.295     l-5.004,3.413c-0.787,0.537-1.857,0.335-2.396-0.452c-0.535-0.785-0.335-1.858,0.453-2.395     C397.062,222.871,397.174,222.812,397.283,222.766z"/>
		</g>
		<g>
			<path fill="#414042" d="M395.484,211.73l5.997,0.85c0.588,0.084,0.998,0.628,0.915,1.219c-0.073,0.51-0.494,0.887-0.989,0.922     l-6.04,0.438c-0.949,0.067-1.776-0.646-1.843-1.596c-0.07-0.949,0.645-1.775,1.595-1.845     C395.239,211.71,395.368,211.715,395.484,211.73z"/>
		</g>
		<g>
			<path fill="#414042" d="M399.115,200.758l4.749,3.751c0.467,0.37,0.546,1.046,0.178,1.514c-0.32,0.405-0.873,0.519-1.318,0.3     l-5.437-2.665c-0.854-0.418-1.209-1.451-0.789-2.306s1.451-1.209,2.308-0.789C398.914,200.615,399.023,200.685,399.115,200.758z"/>
		</g>
		<g>
			<path fill="#414042" d="M407.771,193.883l2.214,5.638c0.218,0.554-0.057,1.178-0.609,1.396c-0.481,0.188-1.017,0.006-1.29-0.406     l-3.354-5.043c-0.527-0.792-0.313-1.863,0.479-2.39c0.794-0.528,1.863-0.313,2.391,0.48     C407.67,193.659,407.728,193.775,407.771,193.883z"/>
		</g>
		<g>
			<path fill="#414042" d="M420.051,209.149c-0.182,0-0.365-0.045-0.534-0.144c-0.512-0.295-0.688-0.951-0.392-1.462l4.797-8.307     c0.295-0.512,0.95-0.688,1.463-0.392c0.513,0.296,0.688,0.95,0.392,1.463l-4.797,8.306     C420.781,208.957,420.422,209.149,420.051,209.149z"/>
		</g>
		<g>
			<path fill="#414042" d="M422.378,211.474c-0.371,0-0.731-0.192-0.929-0.535c-0.296-0.513-0.12-1.167,0.393-1.463l8.35-4.815     c0.515-0.297,1.168-0.12,1.462,0.392c0.297,0.513,0.121,1.167-0.391,1.463l-8.351,4.816     C422.742,211.428,422.559,211.474,422.378,211.474z"/>
		</g>
		<g>
			<path fill="#414042" d="M432.181,214.656C432.181,214.656,432.181,214.656,432.181,214.656l-8.957-0.007     c-0.591,0-1.069-0.481-1.069-1.073c0-0.591,0.48-1.069,1.07-1.069c0,0,0,0,0.003,0l8.955,0.009c0.592,0,1.069,0.481,1.069,1.072     S432.771,214.656,432.181,214.656z"/>
		</g>
		<g>
			<path fill="#414042" d="M430.427,222.484c-0.181,0-0.365-0.045-0.535-0.144l-8.057-4.661c-0.511-0.297-0.686-0.951-0.391-1.464     c0.298-0.512,0.947-0.688,1.464-0.391l8.057,4.661c0.513,0.297,0.687,0.951,0.391,1.464     C431.156,222.294,430.797,222.484,430.427,222.484z"/>
		</g>
		<g>
			<path fill="#414042" d="M424.719,228.249c-0.371,0-0.731-0.193-0.929-0.535l-4.671-8.104c-0.296-0.513-0.12-1.168,0.392-1.462     c0.515-0.297,1.167-0.118,1.463,0.392l4.671,8.104c0.296,0.514,0.12,1.168-0.392,1.462     C425.084,228.203,424.899,228.249,424.719,228.249z"/>
		</g>
		<g>
			<path fill="#414042" d="M416.862,229.951h-0.002c-0.592-0.002-1.071-0.48-1.069-1.072l0.011-8.956     c0.002-0.592,0.479-1.069,1.071-1.069h0.002c0.59,0.001,1.07,0.479,1.068,1.071l-0.011,8.957     C417.932,229.473,417.453,229.951,416.862,229.951z"/>
		</g>
		<g>
			<path fill="#414042" d="M408.957,228.327c-0.181,0-0.366-0.047-0.535-0.145c-0.511-0.297-0.686-0.951-0.391-1.464l4.738-8.186     c0.296-0.512,0.95-0.688,1.464-0.39c0.512,0.296,0.687,0.952,0.391,1.464l-4.738,8.186     C409.687,228.136,409.327,228.327,408.957,228.327z"/>
		</g>
		<g>
			<path fill="#414042" d="M403.668,222.253c-0.371,0-0.732-0.192-0.931-0.536c-0.294-0.512-0.119-1.167,0.396-1.463l7.71-4.438     c0.515-0.293,1.167-0.119,1.462,0.395c0.295,0.512,0.119,1.166-0.395,1.462l-7.71,4.438     C404.032,222.207,403.849,222.253,403.668,222.253z"/>
		</g>
		<g>
			<path fill="#414042" d="M410.53,214.641L410.53,214.641l-8.96-0.017c-0.593-0.001-1.07-0.481-1.069-1.073     c0.002-0.591,0.48-1.069,1.071-1.069h0.001l8.959,0.018c0.593,0.001,1.07,0.481,1.069,1.072     C411.6,214.163,411.121,214.641,410.53,214.641z"/>
		</g>
		<g>
			<path fill="#414042" d="M411.383,211.468c-0.183,0-0.367-0.047-0.536-0.146l-8.213-4.76c-0.513-0.297-0.687-0.951-0.39-1.463     c0.295-0.513,0.95-0.69,1.463-0.39l8.213,4.76c0.512,0.297,0.687,0.951,0.39,1.463     C412.111,211.275,411.752,211.468,411.383,211.468z"/>
		</g>
		<g>
			<path fill="#414042" d="M413.712,209.145c-0.37,0-0.732-0.192-0.93-0.537l-4.639-8.067c-0.294-0.513-0.118-1.167,0.395-1.463     c0.513-0.293,1.168-0.118,1.462,0.395l4.64,8.068c0.294,0.513,0.118,1.166-0.395,1.462     C414.076,209.098,413.893,209.145,413.712,209.145z"/>
		</g>
		<circle fill="#414042" cx="416.878" cy="213.578" r="1.971"/>
	</g>
	<g>
		<path fill="#FFFFFF" d="M250.219,122.232c0,0-9.705,11.537-21.674,11.537c-11.972,0-21.676-11.537-21.676-11.537    s9.705-11.536,21.676-11.536C240.514,110.696,250.219,122.232,250.219,122.232z"/>
		<g>
			<path fill="#414042" d="M228.544,134.839c-12.329,0-22.086-11.432-22.496-11.918l-0.58-0.688l0.58-0.689     c0.41-0.486,10.167-11.918,22.496-11.918c12.327,0,22.084,11.432,22.493,11.918l0.58,0.689l-0.58,0.688     C250.628,123.407,240.871,134.839,228.544,134.839z M208.313,122.232c2.29,2.435,10.577,10.465,20.231,10.465     c9.653,0,17.94-8.031,20.229-10.465c-2.29-2.435-10.577-10.466-20.229-10.466C218.89,111.766,210.603,119.797,208.313,122.232z"/>
		</g>
		<path fill="#2ECCA7" d="M237.741,122.157c-0.014-5.07-4.127-9.172-9.198-9.172c-5.063,0-9.167,4.091-9.194,9.146    c0,0.017-0.003,0.034-0.003,0.05c0,5.078,4.118,9.197,9.197,9.197c5.08,0,9.2-4.119,9.2-9.197    C237.743,122.173,237.741,122.165,237.741,122.157z"/>
		<g>
			<path fill="#414042" d="M228.542,132.449c-5.661,0-10.267-4.605-10.267-10.268c0-5.661,4.606-10.268,10.267-10.268     c5.663,0,10.271,4.606,10.271,10.268C238.813,127.844,234.206,132.449,228.542,132.449z M228.542,114.056     c-4.48,0-8.125,3.645-8.125,8.126c0,4.481,3.645,8.126,8.125,8.126c4.482,0,8.129-3.645,8.129-8.126     C236.671,117.701,233.024,114.056,228.542,114.056z"/>
		</g>
		<circle fill="#176654" cx="228.472" cy="122.11" r="3.264"/>
		<g>
			<path fill="#414042" d="M247.25,106.158h-5.685v-5.427c0-0.591,0.48-1.07,1.071-1.07c0.591,0,1.071,0.479,1.071,1.07v3.285h3.543     c0.591,0,1.07,0.479,1.07,1.071S247.841,106.158,247.25,106.158z"/>
		</g>
		<g>
			<path fill="#414042" d="M242.636,143.281c-0.591,0-1.071-0.48-1.071-1.071v-5.427h5.685c0.591,0,1.07,0.479,1.07,1.071     c0,0.59-0.479,1.071-1.07,1.071h-3.543v3.285C243.707,142.801,243.228,143.281,242.636,143.281z"/>
		</g>
		<g>
			<path fill="#414042" d="M215.482,106.158h-5.684c-0.591,0-1.071-0.479-1.071-1.071s0.479-1.071,1.071-1.071h3.543v-3.285     c0-0.591,0.479-1.07,1.071-1.07c0.591,0,1.07,0.479,1.07,1.07V106.158z"/>
		</g>
		<g>
			<path fill="#414042" d="M214.412,143.281c-0.591,0-1.071-0.48-1.071-1.071v-3.285h-3.543c-0.591,0-1.071-0.48-1.071-1.071     c0-0.592,0.479-1.071,1.071-1.071h5.684v5.427C215.482,142.801,215.002,143.281,214.412,143.281z"/>
		</g>
		<g>
			<g>
				<path fill="#414042" d="M225.854,125.486c0.556,0.346,1.371,0.63,2.227,0.63c1.271,0,2.015-0.669,2.015-1.643      c0-0.9-0.515-1.414-1.814-1.913c-1.57-0.555-2.542-1.369-2.542-2.727c0-1.5,1.242-2.613,3.112-2.613      c0.986,0,1.7,0.226,2.129,0.468l-0.343,1.016c-0.315-0.17-0.956-0.458-1.829-0.458c-1.312,0-1.813,0.786-1.813,1.441      c0,0.901,0.585,1.342,1.913,1.857c1.629,0.63,2.457,1.414,2.457,2.827c0,1.486-1.098,2.77-3.37,2.77      c-0.927,0-1.942-0.271-2.455-0.613L225.854,125.486z"/>
			</g>
			<g>
				<path fill="#414042" d="M228.452,128.754c-0.351,0-0.637-0.401-0.637-0.895v-11.355c0-0.493,0.286-0.892,0.637-0.892      c0.354,0,0.639,0.399,0.639,0.892v11.355C229.091,128.353,228.806,128.754,228.452,128.754z"/>
			</g>
		</g>
		
			<ellipse transform="matrix(0.661 0.7504 -0.7504 0.661 168.1611 -133.4025)" fill="#FFFFFF" cx="231.736" cy="119.426" rx="2.356" ry="1.335"/>
	</g>
	<g>
		<path fill="#E6E7E8" d="M423.851,119.233v-5.157h-4.928c0-1.689-1.37-3.059-3.06-3.059c-1.69,0-3.059,1.37-3.059,3.059h-6.099    c0,9.47,7.674,17.145,17.145,17.145v-5.87c-1.69,0-3.06-1.369-3.06-3.059S422.16,119.233,423.851,119.233z"/>
		<path fill="#F1F2F2" d="M423.851,102.806v-5.873c-9.471,0-17.145,7.677-17.145,17.143h6.099c0-1.689,1.368-3.059,3.059-3.059    c1.689,0,3.06,1.37,3.06,3.059h4.928v-5.153c1.688,0,3.059-1.37,3.059-3.06C426.909,104.176,425.539,102.806,423.851,102.806z"/>
		<path fill="#FFFFFF" d="M434.954,114.076c0,1.69-1.372,3.06-3.062,3.06c-1.687,0-3.059-1.37-3.059-3.06h-4.983v5.157    c-1.69,0-3.06,1.369-3.06,3.059s1.369,3.059,3.06,3.059v5.87c9.467,0,17.141-7.674,17.141-17.145H434.954z"/>
		<path fill="#2ECCA7" d="M429.237,92.079v5.53c1.593,0,2.884,1.288,2.884,2.881c0,1.592-1.291,2.88-2.884,2.88v4.854h4.696    c0,1.592,1.291,2.883,2.88,2.883c1.594,0,2.884-1.291,2.884-2.883h5.686C445.383,99.307,438.158,92.079,429.237,92.079z"/>
		<g>
			<path fill="#414042" d="M424.921,132.292h-1.07c-10.046,0-18.216-8.17-18.216-18.215v-1.07h6.24     c0.473-1.76,2.081-3.059,3.988-3.059s3.517,1.299,3.989,3.059h5.068v7.297h-1.07c-1.097,0-1.989,0.893-1.989,1.988     s0.893,1.989,1.989,1.989h1.07V132.292z M407.812,115.147c0.53,8.011,6.956,14.438,14.968,14.968v-3.834     c-1.76-0.473-3.059-2.082-3.059-3.989c0-1.907,1.299-3.516,3.059-3.989v-3.155h-4.928v-1.071c0-1.097-0.893-1.988-1.988-1.988     s-1.988,0.891-1.988,1.988v1.071H407.812z"/>
		</g>
		<g>
			<path fill="#414042" d="M424.921,115.147h-7.069v-1.071c0-1.097-0.893-1.988-1.988-1.988s-1.988,0.891-1.988,1.988v1.071h-8.24     v-1.071c0-10.043,8.17-18.213,18.216-18.213h1.07v6.012c1.76,0.474,3.059,2.083,3.059,3.989c0,1.906-1.299,3.517-3.059,3.989     V115.147z M419.853,113.006h2.927v-5.154h1.071c1.096,0,1.987-0.891,1.987-1.988c0-1.096-0.892-1.986-1.987-1.986h-1.071v-5.836     c-8.012,0.529-14.438,6.955-14.968,14.965h4.063c0.473-1.76,2.081-3.059,3.988-3.059S419.38,111.246,419.853,113.006z"/>
		</g>
		<g>
			<path fill="#414042" d="M423.851,132.292h-1.071v-6.011c-1.76-0.473-3.059-2.082-3.059-3.989c0-1.907,1.299-3.516,3.059-3.989     v-5.296h7.125v1.07c0,1.098,0.893,1.988,1.988,1.988c1.098,0,1.991-0.891,1.991-1.988v-1.07h8.179v1.07     C442.063,124.121,433.893,132.292,423.851,132.292z M423.851,120.303c-1.097,0-1.989,0.893-1.989,1.988s0.893,1.989,1.989,1.989     h1.07v5.835c8.011-0.53,14.435-6.957,14.965-14.968h-4.002c-0.473,1.76-2.083,3.059-3.991,3.059s-3.517-1.299-3.989-3.059h-2.982     v5.156H423.851z"/>
		</g>
		<g>
			<path fill="#414042" d="M436.813,112.178c-1.808,0-3.336-1.222-3.803-2.884h-4.844v-6.995h1.07c1,0,1.813-0.812,1.813-1.81     c0-0.999-0.813-1.81-1.813-1.81h-1.07v-7.671h1.07c9.494,0,17.218,7.723,17.218,17.216v1.07h-5.834     C440.153,110.956,438.624,112.178,436.813,112.178z M430.309,107.152h4.696v1.071c0,1,0.812,1.813,1.809,1.813     c1,0,1.813-0.813,1.813-1.813v-1.071h5.647c-0.526-7.459-6.505-13.438-13.966-13.964v3.496c1.661,0.467,2.883,1.997,2.883,3.805     c0,1.81-1.222,3.338-2.883,3.805V107.152z"/>
		</g>
	</g>
	<g>
		<path fill="#FFFFFF" d="M382.187,232.492c0,3.531-2.862,6.392-6.392,6.392H277.83c-3.53,0-6.391-2.86-6.391-6.392V100.171    c0-3.531,2.861-6.392,6.391-6.392h97.965c3.529,0,6.392,2.861,6.392,6.392V232.492z"/>
		<g>
			<path fill="#414042" d="M375.795,240.17H277.83c-4.233,0-7.676-3.443-7.676-7.678V100.171c0-4.233,3.443-7.677,7.676-7.677     h97.965c4.233,0,7.678,3.444,7.678,7.677v132.321C383.473,236.727,380.028,240.17,375.795,240.17z M277.83,95.065     c-2.815,0-5.106,2.29-5.106,5.106v132.321c0,2.816,2.291,5.106,5.106,5.106h97.965c2.815,0,5.106-2.29,5.106-5.106V100.171     c0-2.816-2.291-5.106-5.106-5.106H277.83z"/>
		</g>
		<rect x="283.361" y="108.533" fill="#F1F2F2" width="86.902" height="115.6"/>
		<g>
			<rect x="316.284" y="99.909" fill="#414042" width="21.086" height="2.141"/>
		</g>
		<rect x="289.08" y="214.42" fill="#BCBEC0" width="6.948" height="9.713"/>
		<rect x="300.523" y="206.739" fill="#2ECCA7" width="6.949" height="17.394"/>
		<rect x="311.967" y="193.609" fill="#2ECCA7" width="6.95" height="30.523"/>
		<rect x="323.412" y="208.87" fill="#BCBEC0" width="6.948" height="15.263"/>
		<rect x="334.854" y="193.609" fill="#2ECCA7" width="6.947" height="30.523"/>
		<rect x="346.298" y="169.958" fill="#2ECCA7" width="6.949" height="54.175"/>
		<rect x="357.742" y="182.488" fill="#2ECCA7" width="6.948" height="41.645"/>
		<g>
			<path fill="#414042" d="M371.548,225.418h-89.472V107.249h89.472V225.418z M284.646,222.848h84.332V109.817h-84.332V222.848z"/>
		</g>
		<g>
			<polygon fill="#58595B" points="289.748,215.416 288.412,213.424 300.331,205.427 307.274,207.558 319.05,199.537      326.745,207.06 337.3,192.982 349.463,167.844 361.744,181.29 364.69,181.29 364.69,183.687 360.688,183.687 350.08,172.073      339.286,194.328 327.023,210.683 318.78,202.623 307.67,210.185 300.716,208.051    "/>
		</g>
		<g>
			<rect x="291.533" y="140.052" fill="#808285" width="39.672" height="2.397"/>
		</g>
		<g>
			<rect x="291.533" y="148.02" fill="#808285" width="39.672" height="2.396"/>
		</g>
		<g>
			<rect x="291.533" y="155.986" fill="#808285" width="23.908" height="2.397"/>
		</g>
		<g>
			<path fill="#414042" d="M295.542,129.728l-0.942-1.885h-0.086l0.273,1.885v6.253h-2.226v-12.079h1.712l4.54,6.392l0.909,1.832     h0.084l-0.274-1.832v-6.305h2.229v12.077h-1.714L295.542,129.728z"/>
			<path fill="#414042" d="M303.816,123.989h7.111v2.089h-4.763v2.793h4.333v2.089h-4.333v2.931h4.848v2.09h-7.196V123.989z"/>
			<path fill="#414042" d="M315.878,130.687l0.222,2.125h0.07l0.239-2.158l2.09-6.665h1.542l2.055,6.698l0.24,2.125h0.069     l0.262-2.158l1.486-6.665h2.346l-3.305,12.077h-1.577l-2.142-6.665l-0.292-1.833h-0.085l-0.292,1.849l-2.125,6.648h-1.662     l-3.289-12.077h2.553L315.878,130.687z"/>
			<path fill="#414042" d="M332.702,132.76c0-0.365-0.133-0.662-0.401-0.891c-0.269-0.229-0.605-0.438-1.012-0.625     c-0.404-0.189-0.844-0.384-1.319-0.583c-0.474-0.201-0.912-0.446-1.318-0.737s-0.742-0.654-1.012-1.087     c-0.267-0.434-0.401-0.989-0.401-1.663c0-0.583,0.097-1.089,0.29-1.515c0.194-0.43,0.473-0.787,0.832-1.071     c0.359-0.286,0.785-0.498,1.276-0.634c0.491-0.138,1.039-0.206,1.645-0.206c0.696,0,1.354,0.059,1.97,0.179     c0.617,0.12,1.125,0.296,1.525,0.523l-0.736,1.97c-0.252-0.159-0.629-0.305-1.13-0.437c-0.504-0.131-1.047-0.197-1.629-0.197     c-0.549,0-0.967,0.109-1.259,0.325c-0.292,0.217-0.437,0.509-0.437,0.874c0,0.343,0.134,0.627,0.402,0.856     s0.604,0.441,1.011,0.634c0.404,0.194,0.845,0.395,1.319,0.6c0.474,0.206,0.913,0.454,1.319,0.746     c0.406,0.29,0.741,0.65,1.012,1.08c0.266,0.428,0.401,0.962,0.401,1.6c0,0.642-0.105,1.191-0.317,1.654     c-0.211,0.462-0.508,0.849-0.891,1.157c-0.383,0.308-0.845,0.536-1.388,0.684c-0.542,0.149-1.14,0.223-1.79,0.223     c-0.856,0-1.611-0.08-2.262-0.24c-0.651-0.161-1.132-0.319-1.438-0.48l0.752-2.004c0.126,0.068,0.289,0.143,0.49,0.223     c0.198,0.08,0.425,0.155,0.676,0.222c0.251,0.069,0.518,0.126,0.797,0.172c0.279,0.045,0.568,0.069,0.865,0.069     c0.698,0,1.231-0.118,1.602-0.352C332.519,133.597,332.702,133.24,332.702,132.76z"/>
		</g>
		<path fill="#2ECCA7" d="M362.21,148.42c0-6.87-5.57-12.439-12.438-12.439c-6.87,0-12.438,5.569-12.438,12.439    c0,5.795,3.971,10.651,9.336,12.03l2.793,7.394l3.26-7.354C358.164,159.163,362.21,154.27,362.21,148.42z"/>
		<g>
			<path fill="#58595B" d="M340.9,148.456h1.282v-1.339h0.928v1.339h1.292v0.872h-1.292v1.354h-0.928v-1.354H340.9V148.456z"/>
			<path fill="#58595B" d="M349.113,150.016h-0.869v1.546h-0.959v-1.546h-2.4v-0.587l2.512-3.453h0.848v3.218h0.869V150.016z      M347.285,147.982l0.07-0.666h-0.031l-0.27,0.568l-0.823,1.07l-0.395,0.3l0.506-0.061h0.942V147.982z"/>
			<path fill="#58595B" d="M351.137,150.801c0.325,0,0.575-0.087,0.747-0.262c0.171-0.175,0.258-0.384,0.258-0.633     c0-0.303-0.092-0.525-0.271-0.667c-0.178-0.143-0.46-0.214-0.846-0.214h-0.571v-0.547l0.96-1.308l0.451-0.353l-0.627,0.069h-1.33     v-0.871h3.026v0.563l-1.116,1.498l-0.348,0.211v0.04l0.33-0.047c0.185,0.017,0.36,0.058,0.528,0.128     c0.165,0.068,0.312,0.167,0.435,0.296c0.125,0.129,0.224,0.289,0.298,0.48c0.072,0.188,0.111,0.41,0.111,0.656     c0,0.313-0.052,0.583-0.155,0.809c-0.102,0.226-0.245,0.417-0.428,0.57c-0.184,0.154-0.395,0.267-0.637,0.342     c-0.243,0.071-0.505,0.11-0.785,0.11c-0.231,0-0.472-0.021-0.722-0.064c-0.246-0.042-0.448-0.103-0.602-0.183l0.277-0.854     c0.139,0.068,0.288,0.123,0.455,0.166C350.743,150.78,350.93,150.801,351.137,150.801z"/>
			<path fill="#58595B" d="M354.542,151.563l1.813-4.272l0.349-0.387l-0.476,0.08h-2.034v-0.966h3.572v0.302l-2.219,5.244H354.542z"/>
		</g>
	</g>
	<g>
		<circle fill="#2ECCA7" cx="478.801" cy="153.845" r="13.357"/>
		<g>
			<path fill="#414042" d="M478.801,168.273c-7.956,0-14.429-6.474-14.429-14.429c0-7.958,6.473-14.431,14.429-14.431     s14.428,6.474,14.428,14.431C493.229,161.8,486.757,168.273,478.801,168.273z M478.801,141.556     c-6.775,0-12.286,5.512-12.286,12.289c0,6.775,5.511,12.286,12.286,12.286c6.774,0,12.287-5.511,12.287-12.286     C491.088,147.068,485.575,141.556,478.801,141.556z"/>
		</g>
		<path fill="#58D6B9" d="M487.25,153.836c0,4.738-3.84,8.578-8.579,8.578c-4.74,0-8.582-3.84-8.582-8.578    c0-4.74,3.842-8.583,8.582-8.583C483.41,145.252,487.25,149.096,487.25,153.836z"/>
		<g>
			<path fill="#414042" d="M478.671,163.485c-5.322,0-9.652-4.329-9.652-9.649c0-5.323,4.33-9.654,9.652-9.654     c5.321,0,9.65,4.331,9.65,9.654C488.321,159.156,483.992,163.485,478.671,163.485z M478.671,146.323     c-4.142,0-7.511,3.37-7.511,7.513c0,4.141,3.369,7.508,7.511,7.508c4.141,0,7.509-3.367,7.509-7.508     C486.18,149.693,482.812,146.323,478.671,146.323z"/>
		</g>
		<g>
			<g>
				<path fill="#414042" d="M476.587,156.658c0.475,0.293,1.167,0.538,1.898,0.538c1.083,0,1.714-0.571,1.714-1.402      c0-0.764-0.437-1.198-1.543-1.626c-1.339-0.477-2.165-1.168-2.165-2.325c0-1.277,1.058-2.228,2.649-2.228      c0.84,0,1.449,0.194,1.813,0.401l-0.293,0.868c-0.267-0.148-0.815-0.391-1.557-0.391c-1.118,0-1.543,0.669-1.543,1.229      c0,0.765,0.498,1.144,1.629,1.578c1.387,0.538,2.093,1.208,2.093,2.409c0,1.267-0.938,2.359-2.871,2.359      c-0.791,0-1.656-0.229-2.093-0.521L476.587,156.658z"/>
			</g>
			<g>
				<path fill="#414042" d="M478.801,159.439c-0.301,0-0.543-0.341-0.543-0.76v-9.674c0-0.421,0.242-0.757,0.543-0.757      c0.303,0,0.544,0.336,0.544,0.757v9.674C479.345,159.099,479.104,159.439,478.801,159.439z"/>
			</g>
		</g>
		<path fill="#FFFFFF" d="M462.332,174.366l-1.396-0.005c-0.164-0.727-0.448-1.403-0.834-2.012l0.988-0.986    c0.353-0.352,0.354-0.924,0.002-1.275l-0.738-0.739c-0.353-0.351-0.923-0.354-1.274-0.002l-0.989,0.987    c-0.606-0.386-1.284-0.67-2.006-0.834v-1.395c0-0.499-0.406-0.903-0.905-0.903h-1.041c-0.499,0-0.904,0.404-0.904,0.903v1.395    c-0.712,0.159-1.377,0.44-1.979,0.814l-0.98-0.99c-0.351-0.354-0.922-0.359-1.275-0.006l-0.741,0.734    c-0.354,0.348-0.358,0.92-0.008,1.273l0.98,0.993c-0.386,0.605-0.675,1.283-0.842,2.005l-1.394-0.006    c-0.499-0.005-0.903,0.399-0.903,0.901l-0.007,1.042c-0.003,0.497,0.398,0.901,0.897,0.906l1.393,0.004    c0.164,0.728,0.445,1.402,0.829,2.011l-0.991,0.986c-0.352,0.349-0.354,0.921-0.003,1.274l0.732,0.739    c0.354,0.356,0.925,0.356,1.276,0.005l0.99-0.981c0.608,0.385,1.283,0.675,2.01,0.84l-0.007,1.392    c-0.001,0.499,0.402,0.906,0.899,0.906l1.045,0.003c0.497,0,0.903-0.398,0.903-0.895l0.003-1.397    c0.726-0.162,1.404-0.45,2.014-0.832l0.983,0.993c0.351,0.352,0.924,0.352,1.279,0l0.735-0.735    c0.354-0.352,0.356-0.924,0.001-1.275l-0.979-0.99c0.383-0.606,0.671-1.281,0.835-2.01l1.394,0.006    c0.498,0,0.901-0.404,0.903-0.901v-1.045C463.229,174.769,462.828,174.366,462.332,174.366z M454.659,178.636    c-1.58,0-2.863-1.28-2.863-2.863c0-1.58,1.283-2.856,2.863-2.856c1.581,0,2.86,1.276,2.86,2.856    C457.52,177.355,456.24,178.636,454.659,178.636z"/>
		<g>
			<path fill="#414042" d="M455.156,185.417l-1.047-0.003c-0.522,0-1.018-0.204-1.39-0.578c-0.375-0.375-0.579-0.873-0.578-1.401     l0.003-0.587c-0.256-0.091-0.506-0.196-0.752-0.315l-0.419,0.416c-0.743,0.742-2.049,0.738-2.791-0.013l-0.732-0.737     c-0.371-0.374-0.574-0.87-0.573-1.397c0.001-0.526,0.207-1.021,0.582-1.392l0.419-0.418c-0.116-0.244-0.221-0.494-0.31-0.75     l-0.588-0.001c-1.095-0.013-1.972-0.902-1.967-1.983l0.008-1.044c0-1.082,0.881-1.965,1.965-1.965l0.604,0.002     c0.09-0.256,0.195-0.506,0.314-0.75l-0.417-0.421c-0.369-0.374-0.571-0.872-0.567-1.398c0.003-0.526,0.211-1.021,0.584-1.39     l0.742-0.733c0.733-0.736,2.045-0.737,2.789,0.013l0.415,0.419c0.234-0.111,0.473-0.208,0.714-0.294v-0.59     c0-1.089,0.886-1.975,1.975-1.975h1.041c1.09,0,1.977,0.886,1.977,1.975v0.592c0.255,0.089,0.504,0.193,0.748,0.311l0.418-0.418     c0.745-0.743,2.044-0.743,2.789,0.003l0.739,0.738c0.372,0.372,0.577,0.867,0.575,1.395c0,0.527-0.206,1.023-0.579,1.396     l-0.417,0.417c0.118,0.245,0.223,0.497,0.312,0.754l0.595,0.004c1.081,0,1.965,0.882,1.965,1.969v1.045     c-0.007,1.091-0.894,1.972-1.976,1.972l-0.591-0.003c-0.09,0.257-0.195,0.508-0.313,0.753l0.416,0.421     c0.366,0.363,0.574,0.858,0.574,1.386c0.001,0.53-0.206,1.028-0.583,1.401l-0.73,0.733c-0.762,0.749-2.057,0.745-2.796-0.001     l-0.418-0.422c-0.245,0.118-0.496,0.221-0.752,0.311l-0.001,0.594C457.131,184.535,456.245,185.417,455.156,185.417z      M454.284,183.273l0.705,0.002l0.004-2.08l0.836-0.188c0.591-0.131,1.153-0.363,1.678-0.692l0.727-0.455l1.467,1.48l0.498-0.5     l-1.461-1.478l0.453-0.72c0.328-0.52,0.563-1.085,0.696-1.674l0.189-0.838l2.082,0.007v-0.702l-2.077-0.009l-0.188-0.83     c-0.136-0.599-0.369-1.161-0.694-1.675l-0.459-0.723l1.476-1.477l-0.499-0.499l-1.474,1.473l-0.724-0.46     c-0.512-0.324-1.073-0.558-1.672-0.693l-0.833-0.189v-2.081h-0.708v2.086l-0.838,0.186c-0.573,0.127-1.128,0.355-1.647,0.68     l-0.726,0.449l-1.461-1.476l-0.503,0.496l1.462,1.481l-0.46,0.719c-0.328,0.514-0.563,1.077-0.701,1.671l-0.192,0.832     l-2.078-0.009l-0.004,0.709l2.073,0.005l0.188,0.833c0.136,0.6,0.368,1.163,0.691,1.675l0.457,0.726l-1.479,1.474l0.497,0.499     l1.477-1.463l0.721,0.456c0.522,0.332,1.086,0.566,1.673,0.7l0.837,0.189L454.284,183.273z M454.659,179.706     c-2.168,0-3.934-1.766-3.934-3.934c0-2.166,1.766-3.927,3.934-3.927s3.931,1.761,3.931,3.927     C458.59,177.94,456.827,179.706,454.659,179.706z M454.659,173.986c-0.988,0-1.793,0.801-1.793,1.786     c0,0.987,0.805,1.793,1.793,1.793c0.986,0,1.79-0.806,1.79-1.793C456.449,174.787,455.646,173.986,454.659,173.986z"/>
		</g>
		<g>
			<path fill="#414042" d="M454.441,188.086l-0.006-2.142h0.006c1.305,0,2.57-0.248,3.764-0.737l0.813,1.982     C457.565,187.785,456.026,188.086,454.441,188.086z M449.854,187.183c-1.459-0.6-2.768-1.467-3.893-2.577l1.503-1.525     c0.927,0.915,2.005,1.629,3.204,2.122L449.854,187.183z M462.843,184.856l-1.185-1.784l3.567-2.369l1.186,1.785L462.843,184.856z      M443.332,180.748c-0.619-1.447-0.942-2.985-0.963-4.571l2.142-0.027c0.017,1.304,0.283,2.568,0.791,3.757L443.332,180.748z      M469.98,180.117l-1.186-1.784l3.568-2.369l1.186,1.785L469.98,180.117z M477.117,175.38l-1.186-1.785l3.567-2.37l1.185,1.784     L477.117,175.38z M445.199,172.369l-1.991-0.786c0.578-1.464,1.428-2.786,2.524-3.929l1.544,1.483     C446.373,170.079,445.675,171.165,445.199,172.369z M484.252,170.641l-1.185-1.785l3.568-2.37l1.185,1.784L484.252,170.641z      M448.292,167.884l-1.668-1.344l2.686-3.337l1.667,1.345L448.292,167.884z M491.307,165.379l-1.581-1.445     c0.899-0.985,1.666-2.087,2.274-3.272l1.903,0.977C493.21,162.992,492.335,164.252,491.307,165.379z M453.663,161.211     l-1.667-1.345l2.687-3.336l1.667,1.345L453.663,161.211z M495.421,157.342l-2.097-0.438c0.209-1,0.313-2.029,0.312-3.057     c0-0.311-0.009-0.616-0.027-0.92l2.139-0.128c0.021,0.347,0.031,0.696,0.031,1.046     C495.779,155.019,495.659,156.196,495.421,157.342z M459.035,154.537l-1.668-1.344l2.688-3.337l1.668,1.345L459.035,154.537z      M492.842,149.019c-0.429-1.259-1.026-2.458-1.776-3.565l1.771-1.202c0.858,1.265,1.544,2.636,2.032,4.079L492.842,149.019z      M464.407,147.864l-1.667-1.344l1.521-1.889c0.282-0.461,0.67-1.003,1.078-1.511l1.668,1.343     c-0.357,0.444-0.695,0.919-1.009,1.411L464.407,147.864z M488.409,142.481c-1.017-0.872-2.141-1.602-3.341-2.169l0.914-1.935     c1.374,0.647,2.659,1.483,3.821,2.479L488.409,142.481z M469.898,141.717l-1.258-1.735c1.233-0.895,2.585-1.622,4.013-2.158     l0.753,2.004C472.158,140.299,470.978,140.934,469.898,141.717z M481.273,139.103c-1.302-0.227-2.67-0.283-3.984-0.161     l-0.195-2.134c1.497-0.137,3.063-0.076,4.55,0.187L481.273,139.103z"/>
		</g>
	</g>
	<g>
		<g>
			<rect x="240.18" y="194.197" fill="#FFFFFF" width="23.792" height="43.172"/>
			<rect x="240.18" y="194.197" fill="#F1F2F2" width="23.792" height="43.172"/>
			<rect x="242.021" y="196.956" fill="#2ECCA7" width="5.528" height="1.506"/>
			<rect x="249.497" y="196.956" fill="#2ECCA7" width="5.53" height="1.506"/>
			<rect x="256.973" y="196.956" fill="#2ECCA7" width="5.528" height="1.506"/>
			<rect x="242.021" y="199.769" fill="#2ECCA7" width="5.531" height="1.509"/>
			<rect x="249.497" y="199.769" fill="#2ECCA7" width="5.53" height="1.509"/>
			<rect x="256.973" y="199.769" fill="#2ECCA7" width="5.528" height="1.509"/>
			<rect x="242.022" y="202.582" fill="#2ECCA7" width="5.53" height="1.506"/>
			<rect x="249.497" y="202.582" fill="#2ECCA7" width="5.53" height="1.506"/>
			<rect x="256.973" y="202.582" fill="#2ECCA7" width="5.53" height="1.506"/>
			<rect x="242.023" y="205.396" fill="#2ECCA7" width="5.528" height="1.509"/>
			<rect x="249.498" y="205.396" fill="#2ECCA7" width="5.529" height="1.509"/>
			<rect x="256.976" y="205.396" fill="#2ECCA7" width="5.527" height="1.509"/>
			<rect x="242.023" y="208.208" fill="#2ECCA7" width="5.53" height="1.508"/>
			<rect x="249.5" y="208.208" fill="#2ECCA7" width="5.527" height="1.508"/>
			<rect x="256.976" y="208.208" fill="#2ECCA7" width="5.528" height="1.508"/>
			<rect x="242.025" y="211.024" fill="#2ECCA7" width="5.528" height="1.505"/>
			<rect x="249.5" y="211.024" fill="#2ECCA7" width="5.528" height="1.505"/>
			<rect x="256.976" y="211.024" fill="#2ECCA7" width="5.528" height="1.505"/>
			<rect x="242.025" y="213.837" fill="#2ECCA7" width="5.528" height="1.506"/>
			<rect x="249.5" y="213.837" fill="#2ECCA7" width="5.53" height="1.506"/>
			<rect x="256.976" y="213.837" fill="#2ECCA7" width="5.528" height="1.506"/>
			<rect x="242.025" y="216.65" fill="#2ECCA7" width="5.528" height="1.507"/>
			<rect x="249.501" y="216.65" fill="#2ECCA7" width="5.528" height="1.507"/>
			<rect x="256.976" y="216.65" fill="#2ECCA7" width="5.53" height="1.507"/>
			<rect x="242.025" y="219.464" fill="#2ECCA7" width="5.528" height="1.508"/>
			<rect x="249.501" y="219.464" fill="#2ECCA7" width="5.53" height="1.508"/>
			<rect x="256.978" y="219.464" fill="#2ECCA7" width="5.528" height="1.508"/>
			<rect x="242.025" y="222.277" fill="#2ECCA7" width="5.53" height="1.507"/>
			<rect x="249.501" y="222.277" fill="#2ECCA7" width="5.53" height="1.507"/>
			<rect x="256.978" y="222.277" fill="#2ECCA7" width="5.53" height="1.507"/>
			<rect x="242.025" y="225.092" fill="#2ECCA7" width="5.53" height="1.505"/>
			<rect x="249.501" y="225.092" fill="#2ECCA7" width="5.53" height="1.505"/>
			<rect x="256.979" y="225.092" fill="#2ECCA7" width="5.529" height="1.505"/>
			<rect x="242.026" y="227.906" fill="#2ECCA7" width="5.53" height="1.505"/>
			<rect x="249.502" y="227.906" fill="#2ECCA7" width="5.529" height="1.505"/>
			<rect x="256.979" y="227.906" fill="#2ECCA7" width="5.529" height="1.505"/>
			<rect x="242.026" y="230.72" fill="#2ECCA7" width="5.531" height="1.505"/>
			<rect x="249.502" y="230.72" fill="#2ECCA7" width="5.529" height="1.505"/>
			<rect x="256.979" y="230.72" fill="#2ECCA7" width="5.53" height="1.505"/>
			<rect x="242.028" y="233.531" fill="#2ECCA7" width="5.53" height="1.508"/>
			<rect x="249.502" y="233.531" fill="#2ECCA7" width="5.531" height="1.508"/>
			<rect x="256.979" y="233.531" fill="#2ECCA7" width="5.53" height="1.508"/>
			<rect x="241.611" y="192.044" fill="#D1D3D4" width="7.396" height="1.737"/>
			<path fill="#414042" d="M263.954,193.157v-2.155h-9.477v2.155h-4.43v-2.155h-9.477v2.155h-1.431v45.252h25.874v-45.252H263.954z      M241.22,195.237h21.713v41.091H241.22V195.237z"/>
			<rect x="244.668" y="185.769" fill="#414042" width="0.357" height="6.275"/>
			<rect x="246.238" y="188.426" fill="#414042" width="0.355" height="3.618"/>
		</g>
		<g>
			<rect x="220.597" y="181.56" fill="#F1F2F2" width="22.525" height="55.693"/>
			<rect x="223.734" y="185.163" fill="#414042" width="1.24" height="48.993"/>
			<rect x="227.51" y="185.163" fill="#414042" width="1.241" height="48.993"/>
			<rect x="231.286" y="185.163" fill="#414042" width="1.242" height="48.993"/>
			<rect x="235.062" y="185.163" fill="#414042" width="1.242" height="48.993"/>
			<rect x="238.839" y="185.163" fill="#414042" width="1.239" height="48.993"/>
			<path fill="#414042" d="M242.79,180.403v-1.891h-3.439v-3.465h-4.677v3.465h-2.366v1.891h-12.865v58.006h24.834v-58.006H242.79z      M221.752,182.714h20.214v53.384h-20.214V182.714z"/>
		</g>
		<g>
			<circle fill="#2ECCA7" cx="225.043" cy="222.252" r="15.104"/>
			<g>
				<path fill="#414042" d="M224.305,238.428c-8.92,0-16.177-7.256-16.177-16.176s7.257-16.177,16.177-16.177      c8.918,0,16.173,7.257,16.173,16.177S233.224,238.428,224.305,238.428z M224.305,208.217c-7.739,0-14.036,6.297-14.036,14.035      s6.296,14.035,14.036,14.035c7.737,0,14.032-6.297,14.032-14.035S232.042,208.217,224.305,208.217z"/>
			</g>
			<path fill="#2ECCA7" d="M234.6,222.243c0,5.357-4.343,9.701-9.703,9.701c-5.36,0-9.705-4.344-9.705-9.701     c0-5.362,4.344-9.706,9.705-9.706C230.256,212.537,234.6,216.881,234.6,222.243z"/>
			<g>
				<path fill="#414042" d="M224.157,233.017c-5.941,0-10.775-4.834-10.775-10.773c0-5.942,4.834-10.778,10.775-10.778      s10.774,4.836,10.774,10.778C234.931,228.183,230.098,233.017,224.157,233.017z M224.157,213.607      c-4.761,0-8.633,3.875-8.633,8.636c0,4.76,3.873,8.631,8.633,8.631c4.76,0,8.632-3.871,8.632-8.631      C232.789,217.482,228.917,213.607,224.157,213.607z"/>
			</g>
			<g>
				<g>
					<path fill="#414042" d="M221.801,225.437c0.537,0.329,1.32,0.605,2.147,0.605c1.223,0,1.938-0.647,1.938-1.585       c0-0.864-0.495-1.357-1.745-1.84c-1.515-0.538-2.449-1.321-2.449-2.627c0-1.444,1.197-2.518,2.998-2.518       c0.948,0,1.637,0.22,2.05,0.454l-0.33,0.976c-0.303-0.165-0.922-0.439-1.762-0.439c-1.266,0-1.745,0.755-1.745,1.391       c0,0.864,0.563,1.294,1.842,1.788c1.568,0.604,2.366,1.36,2.366,2.724c0,1.428-1.059,2.666-3.246,2.666       c-0.894,0-1.871-0.262-2.366-0.591L221.801,225.437z"/>
				</g>
				<g>
					<path fill="#414042" d="M224.305,228.582c-0.341,0-0.617-0.388-0.617-0.861v-10.937c0-0.476,0.276-0.859,0.617-0.859       c0.34,0,0.613,0.384,0.613,0.859v10.937C224.918,228.194,224.645,228.582,224.305,228.582z"/>
				</g>
			</g>
		</g>
	</g>
	<g>
		<path fill="#F1F2F2" d="M123.83,126.001V114.98c0-0.597,0.382-1.377,0.851-1.746l3.701-2.903c0.468-0.368,0.468-0.965,0-1.333    l-3.701-2.906c-0.469-0.368-0.851-1.149-0.851-1.746V93.82h16.78v10.527c0,0.597-0.38,1.378-0.849,1.746l-3.7,2.906    c-0.469,0.368-0.469,0.965,0,1.333l3.7,2.903c0.469,0.368,0.849,1.149,0.849,1.746v11.021H123.83z"/>
		<path fill="#E6E7E8" d="M123.83,104.347c0,0.597,0.382,1.378,0.851,1.746l3.701,2.906c0.468,0.368,0.468,0.965,0,1.333    l-3.701,2.903c-0.469,0.368-0.851,1.149-0.851,1.746v11.021h8.193V93.82h-8.193V104.347z"/>
		<g>
			<path fill="#414042" d="M139.53,127.071h-14.619c-1.187,0-2.151-0.965-2.151-2.15v-9.941c0-0.926,0.53-2.015,1.259-2.587     l3.478-2.728l-3.478-2.729c-0.729-0.573-1.259-1.663-1.259-2.588v-9.448c0-1.186,0.965-2.15,2.151-2.15h14.619     c1.187,0,2.151,0.964,2.151,2.15v9.448c0,0.927-0.529,2.015-1.258,2.588l-3.477,2.729l3.476,2.728     c0.73,0.573,1.259,1.66,1.259,2.587v9.941C141.681,126.106,140.717,127.071,139.53,127.071z M124.911,94.891l-0.01,9.456     c0,0.267,0.231,0.738,0.441,0.903l3.7,2.906c0.483,0.381,0.761,0.93,0.761,1.508s-0.277,1.128-0.761,1.509l-3.701,2.904     c-0.21,0.165-0.441,0.636-0.441,0.902v9.941l14.629,0.008c0.006,0,0.009-0.002,0.01-0.005v-9.944c0-0.266-0.23-0.739-0.44-0.904     l-3.7-2.901c-0.484-0.382-0.761-0.932-0.761-1.51s0.277-1.127,0.761-1.508l3.7-2.906c0.21-0.165,0.44-0.637,0.44-0.903v-9.448     L124.911,94.891z"/>
		</g>
		<path fill="#2ECCA7" d="M126.358,102.314l5.863,1.506l6.008-1.69c0.595,0,0.789,0.387,0.431,0.864l-5.987,4.875    c-0.36,0.477-0.929,0.469-1.273-0.02l-5.499-4.654C125.556,102.71,125.761,102.314,126.358,102.314z"/>
		<g>
			<path fill="#414042" d="M132.041,109.293c-0.544,0-1.053-0.254-1.419-0.7l-5.594-4.777c-0.403-0.569-0.478-1.202-0.202-1.735     c0.275-0.533,0.833-0.838,1.534-0.838l0.266,0.034l5.584,1.435l6.021-1.652c0.705,0,1.263,0.308,1.531,0.846     c0.269,0.537,0.18,1.168-0.244,1.731l-0.18,0.187l-5.903,4.808C133.065,109.053,132.565,109.293,132.041,109.293z      M128.462,103.961l3.587,3.036l3.782-3.081l-3.598,1.012L128.462,103.961z"/>
		</g>
		<polygon fill="#2ECCA7" points="125.734,123.739 138.534,123.739 138.534,120.184 131.956,116.804 125.734,120.184   "/>
		<g>
			<path fill="#414042" d="M137.455,124.81h-10.641c-1.186,0-2.15-0.966-2.15-2.153v-1.394c0-0.995,0.634-2.062,1.508-2.536     l4.325-2.348c0.416-0.226,0.947-0.35,1.494-0.35c0.364,0,0.906,0.054,1.416,0.316l4.657,2.393     c0.892,0.454,1.541,1.517,1.541,2.525v1.394C139.605,123.843,138.641,124.81,137.455,124.81z M131.991,118.17     c-0.226,0-0.396,0.048-0.473,0.09l-4.324,2.348c-0.178,0.096-0.388,0.45-0.388,0.654v1.394l10.649,0.011c0.001,0,0.002,0,0.002,0     l0.006-1.405c0-0.195-0.204-0.531-0.375-0.619l-4.66-2.395C132.357,118.213,132.2,118.17,131.991,118.17z"/>
		</g>
		<g>
			<path fill="#414042" d="M132.023,115.616c-0.591,0-1.071-0.48-1.071-1.071v-2.312c0-0.592,0.48-1.071,1.071-1.071     c0.591,0,1.071,0.479,1.071,1.071v2.312C133.094,115.136,132.614,115.616,132.023,115.616z"/>
		</g>
		<g>
			<path fill="#414042" d="M142.571,94.891h-20.723c-0.591,0-1.071-0.479-1.071-1.071s0.48-1.071,1.071-1.071h20.723     c0.591,0,1.071,0.48,1.071,1.071S143.162,94.891,142.571,94.891z"/>
		</g>
		<g>
			<path fill="#414042" d="M142.649,127.071h-20.724c-0.591,0-1.07-0.479-1.07-1.07c0-0.591,0.479-1.071,1.07-1.071h20.724     c0.591,0,1.071,0.48,1.071,1.071C143.72,126.592,143.24,127.071,142.649,127.071z"/>
		</g>
		<g>
			<path fill="#414042" d="M132.023,132.844c-0.825,0-1.655-0.043-2.466-0.129l0.228-2.13c0.735,0.079,1.488,0.118,2.238,0.118     l0.471-0.006l0.055,2.142L132.023,132.844z M135.524,132.581l-0.321-2.117c0.889-0.136,1.781-0.331,2.651-0.581l0.592,2.058     C137.487,132.218,136.504,132.432,135.524,132.581z M126.61,132.209c-0.971-0.232-1.934-0.529-2.86-0.884l0.764-1.999     c0.84,0.32,1.713,0.59,2.595,0.8L126.61,132.209z M141.261,130.929l-0.853-1.963c0.822-0.358,1.634-0.775,2.412-1.241     l1.101,1.837C143.063,130.076,142.168,130.536,141.261,130.929z M121.029,130.078c-0.876-0.473-1.729-1.007-2.537-1.588     l1.252-1.737c0.732,0.527,1.506,1.012,2.301,1.44L121.029,130.078z M146.38,127.866l-1.326-1.682     c0.708-0.558,1.386-1.168,2.019-1.815l1.53,1.498C147.908,126.58,147.159,127.251,146.38,127.866z M116.183,126.593     c-0.727-0.679-1.416-1.412-2.049-2.178l1.651-1.363c0.575,0.696,1.201,1.361,1.86,1.977L116.183,126.593z M150.554,123.599     l-1.71-1.289c0.545-0.724,1.047-1.488,1.492-2.27l1.861,1.06C151.707,121.96,151.155,122.801,150.554,123.599z M112.38,121.992     c-0.531-0.844-1.011-1.729-1.426-2.627l1.945-0.898c0.375,0.816,0.812,1.618,1.294,2.384L112.38,121.992z M153.505,118.409     l-1.983-0.812c0.34-0.832,0.629-1.698,0.86-2.574l2.071,0.544C154.199,116.532,153.881,117.488,153.505,118.409z      M109.879,116.574c-0.296-0.948-0.533-1.926-0.705-2.908l2.11-0.368c0.155,0.891,0.371,1.779,0.64,2.638L109.879,116.574z      M155.026,112.63l-2.125-0.272c0.115-0.893,0.173-1.807,0.173-2.71c0-0.639-0.028-1.271-0.083-1.893l2.133-0.192     c0.062,0.688,0.093,1.383,0.092,2.085C155.216,110.642,155.152,111.646,155.026,112.63z M108.851,110.692     c-0.015-0.346-0.023-0.694-0.023-1.044c0-0.654,0.027-1.302,0.081-1.942l2.135,0.176c-0.049,0.583-0.074,1.171-0.074,1.767     c0,0.319,0.008,0.636,0.021,0.949L108.851,110.692z M111.44,105.196l-2.094-0.448c0.21-0.977,0.485-1.945,0.819-2.881l2.018,0.72     C111.88,103.434,111.63,104.312,111.44,105.196z M152.576,105.073c-0.195-0.881-0.451-1.759-0.758-2.607l2.013-0.73     c0.339,0.935,0.62,1.901,0.836,2.872L152.576,105.073z M113.257,100.092l-1.907-0.974c0.452-0.885,0.966-1.75,1.53-2.572     l1.766,1.213C114.135,98.503,113.668,99.289,113.257,100.092z M150.729,99.981c-0.414-0.8-0.886-1.581-1.401-2.324l1.759-1.222     c0.567,0.819,1.087,1.68,1.543,2.562L150.729,99.981z M116.323,95.622l-1.597-1.428c0.664-0.744,1.381-1.449,2.133-2.097     l1.4,1.622C117.577,94.307,116.926,94.948,116.323,95.622z M147.64,95.531c-0.606-0.67-1.262-1.307-1.948-1.894l1.392-1.628     c0.756,0.646,1.477,1.348,2.144,2.085L147.64,95.531z M120.422,92.077l-1.181-1.786c0.828-0.548,1.701-1.048,2.594-1.485     l0.942,1.923C121.967,91.126,121.174,91.58,120.422,92.077z M143.519,92.01c-0.757-0.495-1.552-0.944-2.365-1.334l0.931-1.93     c0.894,0.431,1.771,0.926,2.606,1.471L143.519,92.01z M125.287,89.697l-0.685-2.03c0.942-0.318,1.916-0.578,2.891-0.77     l0.416,2.101C127.023,89.173,126.141,89.408,125.287,89.697z M138.637,89.655c-0.856-0.282-1.739-0.512-2.626-0.681l0.403-2.105     c0.977,0.188,1.952,0.44,2.895,0.752L138.637,89.655z M130.6,88.645l-0.142-2.138c0.988-0.067,1.999-0.068,2.989-0.008     l-0.13,2.137C132.42,88.582,131.497,88.584,130.6,88.645z"/>
		</g>
	</g>
	<g>
		<path fill="#FFFFFF" d="M521.93,224.002c0,1.171-0.951,2.116-2.12,2.116h-19.721c-1.17,0-2.118-0.945-2.118-2.116v-36.27    c0-1.171,0.948-2.117,2.118-2.117h19.721c1.169,0,2.12,0.946,2.12,2.117V224.002z"/>
		<g>
			<path fill="#414042" d="M519.81,227.188h-19.721c-1.758,0-3.188-1.429-3.188-3.187v-36.27c0-1.758,1.431-3.188,3.188-3.188     h19.721c1.761,0,3.19,1.43,3.19,3.188v36.27C523,225.76,521.57,227.188,519.81,227.188z M500.089,186.686     c-0.576,0-1.047,0.471-1.047,1.047v36.27c0,0.577,0.471,1.046,1.047,1.046h19.721c0.579,0,1.049-0.469,1.049-1.046v-36.27     c0-0.576-0.47-1.047-1.049-1.047H500.089z"/>
		</g>
		<rect x="501.269" y="190.26" fill="#2ECCA7" width="17.361" height="30.816"/>
		<g>
			<path fill="#414042" d="M519.701,222.147h-19.504v-32.959h19.504V222.147z M502.34,220.006h15.22V191.33h-15.22V220.006z"/>
		</g>
		<g>
			<path fill="#414042" d="M512.471,189.041h-5.042c-0.591,0-1.071-0.479-1.071-1.071c0-0.59,0.48-1.07,1.071-1.07h5.042     c0.591,0,1.07,0.48,1.07,1.07C513.541,188.562,513.062,189.041,512.471,189.041z"/>
		</g>
		<g>
			<path fill="#414042" d="M538.923,186.754c-0.467,0-0.896-0.307-1.03-0.776l-0.741-2.596l-2.381,0.677     c-0.57,0.163-1.161-0.168-1.323-0.737c-0.162-0.568,0.169-1.161,0.738-1.323l4.438-1.263l1.329,4.654     c0.162,0.568-0.167,1.161-0.735,1.324C539.118,186.741,539.019,186.754,538.923,186.754z"/>
		</g>
		<g>
			<polygon fill="#414042" points="504.941,215.278 502.424,215.278 502.424,213.138 503.307,213.138 505.931,203.552      508.312,208.085 513.322,196.07 518.819,207.97 536.463,182.646 538.221,183.87 518.441,212.259 513.423,201.395      508.531,213.116 506.562,209.36    "/>
		</g>
	</g>
</g>
</svg>
